<svg id="Layer_1" data-name="Layer 1" xmlns="http://www.w3.org/2000/svg" viewBox="0 0 4214.81 3467.56"><defs><style>.cls-1{fill:#a7aabb;}.cls-1,.cls-10,.cls-11,.cls-2,.cls-3,.cls-4,.cls-5,.cls-6,.cls-7,.cls-8,.cls-9{fill-rule:evenodd;}.cls-14,.cls-2{fill:#0a0a0c;}.cls-3{fill:#2c2f3b;}.cls-4{fill:#1a1b24;}.cls-5{fill:#e6e6e5;}.cls-6{fill:#56697b;}.cls-7{fill:#fff;}.cls-8{fill:#3f4151;}.cls-9{fill:#dbb127;}.cls-10{fill:#f6eb16;}.cls-11{fill:#aa8a2f;}.cls-12,.cls-13{fill:none;}.cls-12{stroke:#a7a9bb;stroke-width:171px;}.cls-13{stroke:#fff;stroke-width:75px;}</style></defs><path class="cls-1" d="M1732.86,1823.58c-158.33,49.49-298,150.67-382.8,295.62-68.42,117-102.6,274.31-35.77,399.72,41.2,77.3,111.11,122.5,191,144.85a738.22,738.22,0,0,1-65.16-136.85c-51.07-145-47.23-294.3,36.88-426.75l40.64-64,13.56,74.57c7.18,39.37,19.93,83.72,34.94,120.56a341.8,341.8,0,0,0,16.8,35.37c.26-29.15,6.77-63.09,14.51-89.09a353.68,353.68,0,0,1,21.22-54.46l-12.14,10.31,31.19-98.33c6.69-21.09,16.81-43.59,26.83-63.19a435,435,0,0,1,33.67-55.69l-31.55,12.27,40.67-72.23c6.11-10.84,15.65-22.38,25.49-32.7m1456.92-60.87,19.59-9.13c171.32-79.74,355-93.12,528.53-12.39,241.82,112.48,395,374.55,435.28,631a893.69,893.69,0,0,1,8,214.09c-13.93,163.74-71.06,315-186.79,433.94-213.65,219.58-553.49,259.06-845.2,229.73-39.69,126.88-121.42,225.47-242.32,285.45a545.1,545.1,0,0,1-126.52,44.14c-18.09,3.9-38.44,7.57-57,8.66l-62.86,3.71,35.54-48.57c-17,7.09-34.17,13.73-51.37,20.16-44.64,16.67-90.31,32.38-135.79,46.68L2500,3613l-8.88-2.79c-45.49-14.3-91.16-30-135.81-46.68-17.2-6.43-34.39-13.07-51.37-20.16l35.55,48.57-62.87-3.71c-18.56-1.09-38.91-4.76-57-8.66a545.17,545.17,0,0,1-126.53-44.14c-120.89-60-202.63-158.57-242.32-285.45-291.71,29.33-631.55-10.15-845.19-229.73-115.73-118.95-172.87-270.2-186.8-433.94a893.69,893.69,0,0,1,8-214.09c40.24-256.46,193.47-518.53,435.28-631,173.56-80.73,357.21-67.35,528.53,12.39l19.6,9.13a502.11,502.11,0,0,1,45.89-24.48c-52.3-54-132.25-119.66-194.59-129.21-51.21-7.84-94.19-76.43-115.69-118.38-36.91-72-59.39-156.57-65.83-237.08-18.52-231.53,90.62-413.8,301.34-512.3l39.46-18.44,2.69,43.46c2.06,33.17,5.91,67.62,11.3,100.36,1,6,2.91,16.83,5.46,28.59a269.46,269.46,0,0,1,57.5-53.43l41.45-28.58,4.9,50.11c4.31,44.09,20,98.13,37.21,138.39,25.3,59,62.81,111.85,117.43,141.75-1.75-8.7-3-17.16-3.81-24.9-7.93-77.35,17.48-153,57.93-218.15l34.11-55,19.37,61.72c16.05,51.17,52.31,108.17,88.58,147,54.87,58.79,123.42,95,205.07,95s150.2-36.2,205.07-95c36.27-38.87,72.53-95.87,88.58-147L2813,845.46l34.12,55c40.44,65.16,65.85,140.8,57.92,218.15-.79,7.74-2.06,16.2-3.8,24.9,54.61-29.9,92.12-82.73,117.41-141.75,17.27-40.26,32.92-94.3,37.23-138.39l4.89-50.11,41.46,28.58a270.17,270.17,0,0,1,57.5,53.43c2.55-11.76,4.46-22.58,5.45-28.59,5.39-32.74,9.25-67.19,11.3-100.36l2.69-43.46,39.45,18.44c210.73,98.5,319.88,280.77,301.36,512.3-6.45,80.51-28.93,165-65.84,237.08-21.49,41.95-64.48,110.54-115.68,118.38-62.34,9.55-142.3,75.25-194.6,129.21A504.92,504.92,0,0,1,3189.78,1762.71Zm304.91,901.06c79.91-22.35,149.83-67.55,191-144.85,66.84-125.41,32.67-282.72-35.76-399.72-84.79-144.95-224.47-246.13-382.8-295.62,9.85,10.32,19.39,21.86,25.49,32.7l40.68,72.23-31.56-12.27a435,435,0,0,1,33.68,55.69c10,19.6,20.13,42.1,26.82,63.19l31.2,98.33-12.15-10.31a353.68,353.68,0,0,1,21.22,54.46c7.74,26,14.25,59.94,14.5,89.09a340.55,340.55,0,0,0,16.82-35.37c15-36.79,27.78-81.23,34.93-120.55l13.56-74.58,40.64,64c84.12,132.45,88,281.75,36.88,426.75A738.22,738.22,0,0,1,3494.69,2663.77Z" transform="translate(-393.65 -722.82)"/><path class="cls-2" d="M2500,3581.9s204-64.21,251.29-99.5c0,0-.72,36.69-29.65,76.22,0,0,321.3-19,406-340.8,544.64,62.56,981.66-136.19,1024-634.05,42.83-503.2-382.47-1058.07-929.79-803.31,588.33,138.79,727.47,862.47,207.62,926.32,0,0,248.63-307,68.44-590.71,0,0-39.53,216.67-122.8,225.84,0,0-26.11-74.81-49.4-92.45,0,0,41.63,4.58,61.39,27.87,0,0,9.41-155.49-132.68-260.07,0,0,45.45-2.11,79.54,26.83,0,0-41.29-129.86-129.65-180,0,0,30.7-5.64,62.45,6.71,0,0-39.52-70.22-172.89-121.74,0,0,129.44-152.44,240.09-169.37s349.18-588.59-127.89-811.6c0,0-9.89,159.49-40.24,194.78,0,0-19.05-54.35-80.46-96.69,0,0-27.46,281.88-232.89,326.76,0,0,71.06-113.18-30.57-276.91-22.58,72-124,262.79-321.94,262.79S2200.64,988,2178.06,916.06c-101.62,163.73-30.57,276.91-30.57,276.91-205.42-44.88-232.89-326.76-232.89-326.76-61.4,42.34-80.46,96.69-80.46,96.69-30.35-35.29-40.23-194.78-40.23-194.78-477.08,223-238.55,794.66-127.9,811.6s240.11,169.37,240.11,169.37c-133.39,51.52-172.91,121.74-172.91,121.74,31.75-12.35,62.45-6.71,62.45-6.71-88.36,50.11-129.65,180-129.65,180,34.09-28.94,79.54-26.83,79.54-26.83-142.09,104.58-132.68,260.07-132.68,260.07,19.76-23.29,61.39-27.87,61.39-27.87-23.29,17.64-49.4,92.45-49.4,92.45-83.28-9.17-122.8-225.84-122.8-225.84-180.18,283.71,68.45,590.71,68.45,590.71-519.86-63.85-380.72-787.53,207.61-926.32C1230.8,1525.7,805.5,2080.57,848.33,2583.77c42.37,497.86,479.4,696.61,1024.05,634.05,84.68,321.81,406,340.8,406,340.8-28.93-39.53-29.64-76.22-29.64-76.22,47.28,35.29,251.28,99.5,251.28,99.5" transform="translate(-393.65 -722.82)"/><path class="cls-3" d="M2959.18,1581.11c8.21-70,2.11-231.39,132.71-319.48,0,0,2.94,65.19-25.84,102.19,0,0,195.56-119.22,217.88-323.59,106.64,470.91-186.3,376.74-264.28,590.8,0,0,1.51-134.48,102.18-206.72-86.51-3.57-135.53,86.57-162.65,156.8m-918.35,0c-8.23-70-2.12-231.39-132.72-319.48,0,0-2.93,65.19,25.84,102.19,0,0-195.56-119.22-217.88-323.59C1609.43,1511.14,1902.38,1417,1980.36,1631c0,0-1.53-134.48-102.19-206.72C1964.69,1420.74,2013.71,1510.88,2040.83,1581.11ZM2500,2080.57s51.63,62.24,135,12.33c0,0-123.92-65.77,0-246.65,0,0-98.36,172.07,59,219.06,0,0,106.3-125.69,215.53-160.33,0,0-66.07,40.81-91,74.58,0,0,96.6-63.13,186.45-30.24,0,0-74.58,186.16-209.66,146.23,0,0,87.51,71.06,209.66-20.55,0,0-22.3,13.21-64.6,13.8,0,0,60.49-21.43,122.75-148.28a54,54,0,0,0,4.24-4.86c21,28.44,30.88,49.52,30.88,49.52,32.46-45.17,8.18-88.22,8.18-88.22,22.37,7,80.74,48,80.74,48C3142,1850.13,3060.87,1808,3060.87,1808c22.43-3.5,91.05,14.12,91.05,14.12-258.31-122.8-359.88-53.72-359.88-53.72s78.49-76.93,230.59-23.49c0,0-23.49-45.22-69.3-72.82,0,0,45.22-19.38,104,10,0,0,53.43-118,185-161.49s243.14-404,24.66-620.16c0,0-37,149.16-136.82,243.13,0,0-.61-86.33-21.75-126.85,0,0,15.85,100.42-116.87,207.3s-166.79,229-142.12,343c0,0-98.67-81-18.8-277.19,0,0-59-4.58-157.39,44.63,33.17-34.58,93.35-81.41,126.27-241.36,0,0-73.85,166.78-299.44,182.05-225.59-15.27-299.44-182.05-299.44-182.05,32.92,160,93.1,206.78,126.27,241.36-98.34-49.21-157.39-44.63-157.39-44.63C2249.31,1486,2150.65,1567,2150.65,1567c24.66-113.93-9.4-236.08-142.13-343s-116.86-207.3-116.86-207.3c-21.15,40.52-21.75,126.85-21.75,126.85-99.84-94-136.83-243.13-136.83-243.13-218.47,216.11-106.89,576.7,24.67,620.16s185,161.49,185,161.49c58.73-29.36,103.94-10,103.94-10-45.8,27.6-69.29,72.82-69.29,72.82,152.11-53.44,230.59,23.49,230.59,23.49s-101.57-69.08-359.88,53.72c0,0,68.62-17.62,91.05-14.12,0,0-81.16,42.09-126.33,136.91,0,0,58.37-41,80.75-48,0,0-24.29,43,8.18,88.22,0,0,9.88-21.08,30.87-49.52a54,54,0,0,0,4.24,4.86c62.26,126.85,122.74,148.28,122.74,148.28-42.29-.59-64.6-13.8-64.6-13.8,122.16,91.61,209.67,20.55,209.67,20.55C2069.57,2135.48,1995,1949.32,1995,1949.32c89.86-32.89,186.47,30.24,186.47,30.24-25-33.77-91-74.58-91-74.58,109.24,34.64,215.53,160.33,215.53,160.33,157.39-47,59-219.06,59-219.06,123.92,180.88,0,246.65,0,246.65C2448.37,2142.81,2500,2080.57,2500,2080.57Zm42.83-273.67s16.54,99.83-42.83,186.75c-59.36-86.92-42.83-186.75-42.83-186.75,11.79,82.53,42.83,94.28,42.83,94.28S2531.05,1889.43,2542.83,1806.9Z" transform="translate(-393.65 -722.82)"/><path class="cls-3" d="M2382.54,3269.29c-112.88-8.54-230.48-60.29-266.11-151.17,0,0-60.33,21.29-110.9,28.67,0,0,41.61,199.55,209.45,252.92,0,0-37-98-30.46-127,0,0,83.93,175.17,315.48,216.78,231.56-41.61,315.48-216.78,315.48-216.78,6.57,29-30.46,127-30.46,127,167.85-53.37,209.46-252.92,209.46-252.92-50.58-7.38-110.9-28.67-110.9-28.67-35.64,90.88-153.24,142.63-266.12,151.17C2778.57,3212.57,2844,3110,2844,3110c-46.88-1.56-92.11-21.39-92.11-21.39C2688.73,3250,2500,3252.33,2500,3252.33s-188.73-2.31-251.91-163.71c0,0-45.23,19.83-92.11,21.39,0,0,65.46,102.56,226.56,159.28" transform="translate(-393.65 -722.82)"/><path class="cls-3" d="M2500,2128.75s14-3.83,58.62,23.63c35,21.52,170.11-39,257.82,142.57-113.51-104-219.69-13.24-273.09-76.35,47.49,170.56,346.86-86.9,301.87,335.92,0,0-8.36-126.86-85.75-165.62s-140.94-18.72-192.62-48.11c-7.12,77.31,364.49,58.6,193.8,339.4,0,0,17.68-145.64-85.74-181.46.07.26,71.59,89.5,45.49,166.06-18.85,55.31-107.67-109.7-220.4-105-112.73-4.72-201.54,160.29-220.39,105-26.11-76.56,45.41-165.8,45.49-166.06-103.44,35.82-85.75,181.46-85.75,181.46-170.68-280.8,200.92-262.09,193.8-339.4-51.68,29.39-115.24,9.35-192.61,48.11s-85.76,165.62-85.76,165.62c-45-422.82,254.38-165.36,301.87-335.92-53.4,63.11-159.58-27.63-273.08,76.35,87.7-181.54,222.85-121,257.81-142.57,44.64-27.46,58.62-23.63,58.62-23.63" transform="translate(-393.65 -722.82)"/><path class="cls-3" d="M2773.57,2127.05s5.86,90.37,70.46,136.18,125.69,63.42,144.47,125.67c60.36,0,65.58-71.21,109.73-61.09s21.88,92.73,21.88,92.73C3189.27,2371.84,3166,2290,3166,2290c37.41,31.76,69.87,147.47,69.87,147.47,61.86-181.39-75.5-299.9-75.5-299.9,48,10.58,126.32,61.66,126.32,61.66-45.16-143-225.34-189.69-225.34-189.69s-1.17,63.58-65.19,117.53c0,0,24.08-3,58.73-31.2,0,0-49.33,91-152.69,70.47s-128.61-39.27-128.61-39.27" transform="translate(-393.65 -722.82)"/><path class="cls-3" d="M2500,2603.84c52.74,2.35,84.45,18.81,146.71,76.35s89.26,2.35,122.15,57.55c22.79,38.24,1.74,119.87-34.08,186.34-4.6-31.37-15.92-63.81-35.28-96.09,1.59-21.69-8.59-39.53-40-44.55-92-14.68-85.15,190.86-85.15,190.86,8.76-35.26,14-88.51,36.69-115.5-5.43,15.94-14.26,58.12-.26,70.39,25.07,106.95,6.25,129.11-110.77,123.33-117,5.78-135.84-16.38-110.76-123.33,14-12.27,5.17-54.45-.28-70.39,22.66,27,27.94,80.24,36.7,115.5,0,0,6.85-205.54-85.15-190.86-31.41,5-41.6,22.86-40,44.55-19.36,32.28-30.68,64.72-35.28,96.09-35.82-66.47-56.85-148.1-34.08-186.34,32.89-55.2,59.9,0,122.16-57.55s94-74,146.7-76.35" transform="translate(-393.65 -722.82)"/><path class="cls-3" d="M2879.53,2327.81s5.69,40.05,90.26,99.31,104,76.87,129.19,187.28c0,0-135.95,25.84-219.45,150.35,0,0,304-259.54,324-61.06,0,0-80.86-59.92-162,34s-116.38,313.61-197.42,313.61-106.88-30.54-106.88-30.54,97.48-170.32,98.65-281.9c0,0,61.67-117.46,134.49-150.35,0,0-41.11-11.15-84.56,23.5,0,0,32.3-103.38,24.07-151.52s-30.35-48.13-30.35-132.72" transform="translate(-393.65 -722.82)"/><path class="cls-4" d="M3203.42,2702.89c0,.28.08.52.11.8,0,0-80.86-59.92-162,34s-116.38,313.61-197.42,313.61c-78.51,0-105.22-28.66-106.81-30.45l-.05-.07,0,0c65.14-11.42,89.74-88.79,132.09-174.67s180.67-186.55,254.77-192.89c68.94-5.91,78.36,42.82,79.33,49.65" transform="translate(-393.65 -722.82)"/><path class="cls-5" d="M2913.48,3051.34c44.63-42.6,72.82-131.87,113.93-216.43s104.55-124.51,163.27-102.2c55.61,21.14,318.74,123.39,530.18-73.62-57.16,121.57-195.11,198.34-195.11,198.34,562.92-211.55,297.18-1040.95-191.21-1077.29,810.71-226.92,1244.33,1698.42-421.06,1271.2" transform="translate(-393.65 -722.82)"/><path class="cls-6" d="M2762.18,2062s79.9,46.92,135.69-55.21c-77.32,4.16-107.69,25.87-135.69,55.21" transform="translate(-393.65 -722.82)"/><path class="cls-7" d="M2762.18,2062s1.57.93,4.43,2.23c26.44,6.65,73.33,6.76,110.85-55.82-62.54,6.65-89.89,27-115.28,53.59" transform="translate(-393.65 -722.82)"/><path class="cls-5" d="M3103.49,2502.11s46.9-28.72,147.83-23.07,227.25-82.87,247-216.67c0,0,58.65,311.49-254.07,427.21,0,0-15.84-92.92-85.72-91.51-21.86-53.85-22.47-64.42-55.05-96" transform="translate(-393.65 -722.82)"/><path class="cls-4" d="M2611,2858.8c-22.66,27-27.93,80.24-36.69,115.5,0,0-6.86-205.54,85.15-190.86,31.42,5,41.6,22.86,40,44.55,0,0,11.95-91.83-89.23-69.95s-77.1,154.15-38.55,254.77c0,0,12.35-43,19.41-58.93,0,0,28.69,60.33-22.66,97.12,55.08-8.39,61.31-40.74,42.3-121.81-14-12.27-5.17-54.45.26-70.39" transform="translate(-393.65 -722.82)"/><path class="cls-4" d="M2759.47,2388.9c-77.38-38.76-140.94-18.72-192.62-48.11-2.11,22.87,28.93,37.34,69.27,53.64-127.22-29.86-100-106.34-100-106.34,36.08,38.81,72.69,22.58,201.14,60,121.15,35.28,109.83,187.66,108.15,204.87,0,0,0,.07,0,.1l-.15,1.48s-8.36-126.86-85.75-165.62" transform="translate(-393.65 -722.82)"/><path class="cls-4" d="M2816.44,2295c-113.51-104-219.69-13.24-273.09-76.35,6.06,21.76,16.21,36.54,29.22,46.67-43-18.05-47.77-89.4-47.77-89.4,7.76,19.76,40.21,47.62,144,42.35S2816.44,2295,2816.44,2295" transform="translate(-393.65 -722.82)"/><path class="cls-4" d="M2909.88,2460.53c8.23,48.14-24.07,151.52-24.07,151.52,43.45-34.65,84.56-23.49,84.56-23.49-72.82,32.89-134.49,150.34-134.49,150.34s125.18-159.78,213.39-159.07c0,0-36.4-36.7-86.1-36.7,0,0,21.18-57.44-7.76-89.64s-62.83-33.28-75.88-125.68c0,84.59,22.13,84.59,30.35,132.72" transform="translate(-393.65 -722.82)"/><path class="cls-4" d="M2773.57,2127.05s63.69,125,196.8,96.44c0,0-55.2-6.77-73.9-22.3,0,0,160.2,36.7,198.31-115,0,0-28.41,27.49-37.06,31.58,0,0,48.69-64.69,3.61-108.21,0,0-1.17,63.58-65.19,117.53,0,0,24.08-3,58.73-31.2,0,0-49.33,91-152.69,70.47s-128.61-39.27-128.61-39.27" transform="translate(-393.65 -722.82)"/><path class="cls-4" d="M2635,1846.25s-98.36,172.07,59,219.06c0,0,106.3-125.69,215.53-160.33,0,0-66.07,40.81-91,74.58,0,0,96.6-63.13,186.45-30.24,0,0-74.58,186.16-209.66,146.23,0,0,87.51,71.06,209.66-20.55,0,0-22.3,13.21-64.6,13.8,90.62-47.64,111.82-194.08,111.82-194.08-39.52-6.35-87.86,4.23-87.86,4.23a240.53,240.53,0,0,1,57.16-25c-84.91-23.06-138,1.41-138,1.41,50.81-31.06,105.16-39.87,105.16-39.87-199-22.58-343,144-343,144C2599.87,1952,2635,1846.25,2635,1846.25" transform="translate(-393.65 -722.82)"/><path class="cls-4" d="M2500,1993.65v86.92s51.63,62.24,135,12.33c0,0-123.92-65.77,0-246.65,0,0-.33,1-.88,2.81,28.74-43.66,67-61.78,70.28-63.28-84.54,38.06-124.71,69.12-145.86,134.69s-58.57,73.18-58.57,73.18" transform="translate(-393.65 -722.82)"/><path class="cls-4" d="M3121.83,1424.31c-86.51-3.57-135.53,86.57-162.65,156.8,8.21-70,2.11-231.39,132.71-319.48,0,0,2.94,65.19-25.84,102.19,0,0,195.56-119.22,217.88-323.59,106.64,470.91-186.3,376.74-264.28,590.8,0,0,1.51-134.48,102.18-206.72m-289.45,218.1c60.7,18.35,74.11,37.41,74.11,37.41-57.14,1-114.45,88.62-114.45,88.62s78.49-76.93,230.59-23.49c0,0-23.49-45.22-69.3-72.82,0,0,45.22-19.38,104,10,0,0,53.43-118,185-161.49s243.14-404,24.66-620.16c47.1,172.67-153.66,394-153.66,394,14.82-27.52,12.71-76.93,12.71-76.93-201.85,76.22-204.67,318.29-204.67,318.29-12.7-21.88-9.87-85.39-9.87-85.39-33.86,76.22,0,174,0,174C2864.14,1614.54,2832.38,1642.41,2832.38,1642.41Z" transform="translate(-393.65 -722.82)"/><path class="cls-3" d="M3283.93,1040.23c106.64,470.91-186.3,376.74-264.28,590.8,0,0,85.84-122,179-145.28s212.2-207.17,85.28-445.52" transform="translate(-393.65 -722.82)"/><path class="cls-4" d="M2743.78,1544s8,57.17-14.82,104.45c0,0,96.33-77.28,135.5-57.87,0,0-7.93-8.14-15.92-27.42.28,1.29.54,2.58.82,3.87,0,0-98.67-81-18.8-277.19,0,0-59-4.58-157.39,44.63,33.17-34.58,93.35-81.41,126.27-241.36a165.43,165.43,0,0,1-8.4,15.65c-27.62,50.75-117.33,209.7-178.17,249.28,0,0,61.48-15.25,120.33-19.41,0,0-23.65,34.26-14.47,103.39,0,0,17.29-51.51,33.51-60.34,0,0-33.16,95.27-8.46,162.32" transform="translate(-393.65 -722.82)"/><path class="cls-6" d="M2655.88,1917.69s39.16-197.89,337.69-128.94c0,0-104.45-6.22-157.38,21,0,0,61.75-12.35,103.39-2.47-127,8.21-235.15,77.73-283.7,110.45" transform="translate(-393.65 -722.82)"/><path class="cls-6" d="M3166,2290c37.41,31.76,69.87,147.47,69.87,147.47,61.86-181.39-75.5-299.9-75.5-299.9,48,10.58,126.32,61.66,126.32,61.66-27.62-87.43-105.7-138.86-162.21-165.62,94.4,59.07,123.5,111.35,123.5,111.35-38.69-28.23-118.56-23.11-118.56-23.11,52.2,44.56,96,189,96,189-12.71-39.52-105.86-87.3-105.86-87.3,19.58,27.62,27.8,55.84,29.63,82-29.9-36.94-107.94-14-112.34,25.89-5.64,51.16-48.32,57.53-48.32,57.53,60.36,0,65.58-71.21,109.73-61.09s21.88,92.73,21.88,92.73C3189.27,2371.84,3166,2290,3166,2290" transform="translate(-393.65 -722.82)"/><path class="cls-6" d="M2815.48,3272.71c6.57,29-30.46,127-30.46,127,167.85-53.37,209.46-252.92,209.46-252.92-10.49-1.53-21.38-3.66-32.08-6.07-29.15,113-125.4,187.53-125.4,187.53,7.75-48-26.82-88.92-26.82-88.92-18.19,59.71-70.21,123-105,160.5,78.46-60.74,110.26-127.12,110.26-127.12" transform="translate(-393.65 -722.82)"/><path class="cls-8" d="M2997.17,2521.58s81.29,27,101.81,92.82c-25.16-110.41-44.62-128-129.19-187.28-26.48-18.56-45.23-35.23-58.49-49.38,3.75,15.15,14.81,34.21,42.47,53.86,62.46,44.37,43.4,90,43.4,90" transform="translate(-393.65 -722.82)"/><path class="cls-8" d="M2655.88,1753.14s66.33-121.74,146.1-71.57c0,0-34.86,33.48-73.06,50.44a284.84,284.84,0,0,1-73,21.13" transform="translate(-393.65 -722.82)"/><path class="cls-6" d="M2991.48,1224c-126.67,102-163.47,217.93-145.13,327.34,0,0,16.74-192.15,98.93-249.33,0,0-19.78,48-17.66,78,0,0,21.15-76.21,71.27-115s101.62-96.69,108.68-144.68c0,0,12.54,48.68,6.71,76.58,0,0,147.21-113.7,152.64-296.45,0,0-37,149.16-136.82,243.13,0,0-.61-86.33-21.75-126.85,0,0,15.85,100.42-116.87,207.3" transform="translate(-393.65 -722.82)"/><path class="cls-1" d="M2913.48,3051.34c989,253.7,1237.75-322.24,1106.9-784.4-74.41-162.9-178-227.17-178-227.17,359.32,528.64-46.35,879.86-46.35,879.86,57.86-81.87,45.17-209.45,45.17-209.45-191.73,393.53-842.43,187.76-842.43,187.76-27.44,63-51.7,121.36-85.26,153.4" transform="translate(-393.65 -722.82)"/><path class="cls-1" d="M3160.22,2598.06c68.45.09,84,91.52,84,91.52,312.72-115.72,254.07-427.21,254.07-427.21-4.37,284.79-131.43,295.92-131.43,295.92,63.81-34.58,73.39-105.86,73.39-105.86s-18.34,52.22-116.44,69.16c-69.16,11.94-132.36,53.18-163.63,76.47" transform="translate(-393.65 -722.82)"/><path class="cls-7" d="M3160.22,2781.29c126.45,39.87,443.56,102.86,560.64-122.2-211.44,197-474.57,94.76-530.18,73.62-39.43-15-81-1.9-116.49,33.92,24.39.25,53.07,4.27,86,14.66" transform="translate(-393.65 -722.82)"/><path class="cls-7" d="M3525.75,2857.43s452.81-56.28,350-562.48-444.39-523.41-541.19-514.81c488.39,36.34,754.13,865.74,191.21,1077.29" transform="translate(-393.65 -722.82)"/><path class="cls-7" d="M3103.49,2502.11c13,12.57,20.9,21.81,27.09,31.78,24-15,66.48-33.45,134-37.82,118.57-7.66,229.41-69.46,233.78-233.7-19.76,133.8-146.09,222.31-247,216.67s-147.83,23.07-147.83,23.07" transform="translate(-393.65 -722.82)"/><path class="cls-3" d="M2226.44,2127.05s-5.87,90.37-70.47,136.18-125.68,63.42-144.48,125.67c-60.36,0-65.56-71.21-109.72-61.09s-21.88,92.73-21.88,92.73C1810.74,2371.84,1834,2290,1834,2290c-37.4,31.76-69.87,147.47-69.87,147.47-61.86-181.39,75.51-299.9,75.51-299.9-48,10.58-126.33,61.66-126.33,61.66,45.16-143,225.34-189.69,225.34-189.69s1.18,63.58,65.19,117.53c0,0-24.08-3-58.73-31.2,0,0,49.33,91,152.69,70.47s128.62-39.27,128.62-39.27" transform="translate(-393.65 -722.82)"/><path class="cls-3" d="M2120.48,2327.81s-5.7,40.05-90.26,99.31S1926.18,2504,1901,2614.4c0,0,136,25.84,219.47,150.35,0,0-304-259.54-324-61.06,0,0,80.86-59.92,162,34s116.38,313.61,197.42,313.61,106.88-30.54,106.88-30.54-97.49-170.32-98.66-281.9c0,0-61.67-117.46-134.49-150.35,0,0,41.11-11.15,84.56,23.5,0,0-32.3-103.38-24.07-151.52s30.36-48.13,30.36-132.72" transform="translate(-393.65 -722.82)"/><path class="cls-4" d="M1796.58,2702.89c0,.28-.08.52-.1.8,0,0,80.86-59.92,162,34s116.38,313.61,197.42,313.61c78.5,0,105.21-28.66,106.8-30.45l.05-.07,0,0c-65.14-11.42-89.75-88.79-132.09-174.67S1950,2659.58,1875.91,2653.24c-68.94-5.91-78.35,42.82-79.33,49.65" transform="translate(-393.65 -722.82)"/><path class="cls-5" d="M2086.53,3051.34c-44.64-42.6-72.84-131.87-113.94-216.43S1868,2710.4,1809.33,2732.71c-55.62,21.14-318.76,123.39-530.2-73.62,57.18,121.57,195.12,198.34,195.12,198.34-293.78-110.39-317.52-341.35-311.43-448.26-15.89-267.22,193.34-606,502.64-629-810.71-226.92-1244.33,1698.42,421.07,1271.2" transform="translate(-393.65 -722.82)"/><path class="cls-6" d="M2237.82,2062s-79.9,46.92-135.69-55.21c77.33,4.16,107.7,25.87,135.69,55.21" transform="translate(-393.65 -722.82)"/><path class="cls-7" d="M2237.82,2062s-1.58.93-4.43,2.23c-26.44,6.65-73.32,6.76-110.86-55.82,62.55,6.65,89.9,27,115.29,53.59" transform="translate(-393.65 -722.82)"/><path class="cls-9" d="M2373.06,2884.24s-75,236.87,126.94,236.87,126.94-236.87,126.94-236.87c1.2-26.73,16.19-51.28,41.6-63.08,130.81,182.65-7.51,364.55-168.54,364.55s-299.35-181.9-168.53-364.55c25.4,11.8,40.4,36.35,41.59,63.08" transform="translate(-393.65 -722.82)"/><path class="cls-5" d="M1896.5,2502.11s-46.89-28.72-147.82-23.07-227.25-82.87-247-216.67c0,0-58.65,311.49,254.07,427.21,0,0,15.84-92.92,85.72-91.51,21.85-53.85,22.48-64.42,55-96" transform="translate(-393.65 -722.82)"/><path class="cls-4" d="M2389,2858.8c22.66,27,27.94,80.24,36.7,115.5,0,0,6.85-205.54-85.15-190.86-31.41,5-41.6,22.86-40,44.55,0,0-11.95-91.83,89.24-69.95s77.1,154.15,38.55,254.77c0,0-12.36-43-19.42-58.93,0,0-28.69,60.33,22.67,97.12-55.09-8.39-61.32-40.74-42.3-121.81,14-12.27,5.17-54.45-.28-70.39" transform="translate(-393.65 -722.82)"/><path class="cls-8" d="M2468.28,2648.06c-8.68-6.11-17.87-3.29-28.89,5.46,66.45,11.95,35.18,113.32,35.18,113.32-17.64-72-87.66-58.71-87.66-58.71v0c-37.68,36.72-88,11.14-131.78,35.22-44.92,24.71-12.45,131.88-12.45,131.88-20.78-53.74-29-108.26-11.55-137.47,32.89-55.2,59.9,0,122.16-57.55s94-74,146.7-76.35c52.74,2.35,84.45,18.81,146.71,76.35s89.26,2.35,122.15,57.55c17.39,29.21,9.24,83.73-11.56,137.47,0,0,32.49-107.17-12.43-131.88-43.83-24.08-94.11,1.5-131.78-35.22v0s-70-13.28-87.67,58.71c0,0-31.27-101.37,35.18-113.32-11-8.75-20.21-11.57-28.88-5.46-13.73,9.65-17.94,22.42-31.73,25.78-13.79-3.36-18-16.13-31.72-25.78" transform="translate(-393.65 -722.82)"/><path class="cls-10" d="M2500,3185.71c-133.29,0-251-124.63-213.44-271.15,0,0-41.4,229.62,213.44,259.26,254.83-29.64,213.44-259.26,213.44-259.26,37.59,146.52-80.15,271.15-213.44,271.15" transform="translate(-393.65 -722.82)"/><path class="cls-11" d="M2500,3146.4c-194,7.86-154.49-225.24-154.49-225.24-8.85,10.94-16.23,58.58-16.23,58.58-7-61.65,14.16-107.48,31.43-133.61a74.5,74.5,0,0,1,12.35,38.11s-75,236.87,126.94,236.87,126.94-236.87,126.94-236.87a74.42,74.42,0,0,1,12.36-38.11c17.27,26.13,38.37,72,31.43,133.61,0,0-7.38-47.64-16.24-58.58,0,0,39.48,233.1-154.49,225.24" transform="translate(-393.65 -722.82)"/><path class="cls-4" d="M2500,3413.87c-184.81.73-184.82-124.82-184.82-124.82,68.46,11.14,124.91-15.37,124.91-15.37-114.51-21.6-219.63-123.23-259.61-166a301.6,301.6,0,0,0,67.61-19.06C2311.27,3250,2500,3252.33,2500,3252.33s188.73-2.31,251.91-163.71a301.8,301.8,0,0,0,67.61,19.06c-40,42.77-145.1,144.4-259.61,166,0,0,56.46,26.51,124.92,15.37,0,0,0,125.55-184.83,124.82" transform="translate(-393.65 -722.82)"/><path class="cls-4" d="M2325.1,2498.73c-.08.26-71.6,89.5-45.49,166.06,18.85,55.31,107.66-109.7,220.39-105,112.73-4.72,201.55,160.29,220.4,105,26.1-76.56-45.42-165.8-45.49-166.06,103.42,35.82,85.74,181.46,85.74,181.46s88.89-163.09-121.48-226.6c0,0,30.64,51.83,23.94,82.57s-67.05-73.75-105.15-82.57-58-29.29-58-29.29-19.83,20.46-57.95,29.29-98.45,113.3-105.16,82.57,24-82.57,24-82.57c-210.37,63.51-121.49,226.6-121.49,226.6s-17.69-145.64,85.75-181.46" transform="translate(-393.65 -722.82)"/><path class="cls-4" d="M2240.54,2388.9c77.37-38.76,140.93-18.72,192.61-48.11,2.11,22.87-28.93,37.34-69.27,53.64,127.22-29.86,100-106.34,100-106.34-36.09,38.81-72.7,22.58-201.14,60-121.15,35.28-109.84,187.66-108.15,204.87v.1l.15,1.48s8.36-126.86,85.76-165.62" transform="translate(-393.65 -722.82)"/><path class="cls-4" d="M2183.57,2295c113.5-104,219.68-13.24,273.08-76.35-6.06,21.76-16.2,36.54-29.21,46.67,42.94-18.05,47.77-89.4,47.77-89.4-7.76,19.76-40.23,47.62-144,42.35S2183.57,2295,2183.57,2295" transform="translate(-393.65 -722.82)"/><path class="cls-8" d="M2500,2402s-37.65,32.11-62.36,33.53-50.1,31.4-50.1,31.4,3.52-40.45,39.17-62.57,48.5-44,48.5-94.11,0-104.83,24.79-115.3c24.8,10.47,24.8,65.19,24.8,115.3s12.86,72,48.5,94.11,39.16,62.57,39.16,62.57-25.4-30-50.11-31.4S2500,2402,2500,2402" transform="translate(-393.65 -722.82)"/><path class="cls-4" d="M2090.12,2460.53c-8.23,48.14,24.07,151.52,24.07,151.52-43.45-34.65-84.56-23.49-84.56-23.49,72.82,32.89,134.49,150.34,134.49,150.34S2039,2579.12,1950.73,2579.83c0,0,36.41-36.7,86.1-36.7,0,0-21.17-57.44,7.77-89.64s62.83-33.28,75.88-125.68c0,84.59-22.14,84.59-30.36,132.72" transform="translate(-393.65 -722.82)"/><path class="cls-4" d="M2226.44,2127.05s-63.7,125-196.81,96.44c0,0,55.2-6.77,73.9-22.3,0,0-160.19,36.7-198.3-115,0,0,28.4,27.49,37,31.58,0,0-48.68-64.69-3.61-108.21,0,0,1.18,63.58,65.19,117.53,0,0-24.08-3-58.73-31.2,0,0,49.33,91,152.69,70.47s128.62-39.27,128.62-39.27" transform="translate(-393.65 -722.82)"/><path class="cls-4" d="M2365,1846.25s98.37,172.07-59,219.06c0,0-106.29-125.69-215.53-160.33,0,0,66.07,40.81,91,74.58,0,0-96.61-63.13-186.47-30.24,0,0,74.59,186.16,209.67,146.23,0,0-87.51,71.06-209.67-20.55,0,0,22.31,13.21,64.6,13.8-90.6-47.64-111.81-194.08-111.81-194.08,39.53-6.35,87.86,4.23,87.86,4.23a240.53,240.53,0,0,0-57.16-25c84.92-23.06,138,1.41,138,1.41-50.82-31.06-105.16-39.87-105.16-39.87,199-22.58,343,144,343,144,45.87-27.38,10.71-133.16,10.71-133.16" transform="translate(-393.65 -722.82)"/><path class="cls-4" d="M2500,1993.65v86.92s-51.63,62.24-135,12.33c0,0,123.92-65.77,0-246.65,0,0,.34,1,.89,2.81-28.74-43.66-67-61.78-70.28-63.28,84.53,38.06,124.7,69.12,145.85,134.69s58.57,73.18,58.57,73.18" transform="translate(-393.65 -722.82)"/><path class="cls-4" d="M1878.17,1424.31c86.52-3.57,135.54,86.57,162.66,156.8-8.23-70-2.12-231.39-132.72-319.48,0,0-2.93,65.19,25.84,102.19,0,0-195.56-119.22-217.88-323.59C1609.43,1511.14,1902.38,1417,1980.36,1631c0,0-1.53-134.48-102.19-206.72m289.45,218.1c-60.7,18.35-74.11,37.41-74.11,37.41,57.14,1,114.45,88.62,114.45,88.62s-78.48-76.93-230.59-23.49c0,0,23.49-45.22,69.29-72.82,0,0-45.21-19.38-103.94,10,0,0-53.43-118-185-161.49s-243.14-404-24.67-620.16c-47.09,172.67,153.66,394,153.66,394-14.82-27.52-12.71-76.93-12.71-76.93,201.85,76.22,204.67,318.29,204.67,318.29,12.7-21.88,9.87-85.39,9.87-85.39,33.85,76.22,0,174,0,174C2135.86,1614.54,2167.62,1642.41,2167.62,1642.41Z" transform="translate(-393.65 -722.82)"/><path class="cls-3" d="M1716.07,1040.23C1609.43,1511.14,1902.38,1417,1980.36,1631c0,0-85.85-122-179-145.28s-212.2-207.17-85.28-445.52" transform="translate(-393.65 -722.82)"/><path class="cls-4" d="M2256.23,1544s-8,57.17,14.82,104.45c0,0-96.34-77.28-135.5-57.87,0,0,7.92-8.14,15.91-27.42l-.81,3.87s98.66-81,18.79-277.19c0,0,59-4.58,157.39,44.63-33.17-34.58-93.35-81.41-126.27-241.36a168.49,168.49,0,0,0,8.4,15.65c27.62,50.75,117.33,209.7,178.17,249.28,0,0-61.47-15.25-120.33-19.41,0,0,23.65,34.26,14.47,103.39,0,0-17.29-51.51-33.52-60.34,0,0,33.18,95.27,8.48,162.32" transform="translate(-393.65 -722.82)"/><path class="cls-4" d="M2500,1901.18s-31-11.75-42.83-94.28c0,0-3.65,22.06-1.35,54.49-14.8-46.16-23.15-107.2-12.91-185.07,0,0-1.48,84.6,57.09,121.48,58.57-36.88,57.09-121.48,57.09-121.48,10.24,77.87,1.89,138.91-12.9,185.07,2.3-32.43-1.36-54.49-1.36-54.49-11.78,82.53-42.83,94.28-42.83,94.28" transform="translate(-393.65 -722.82)"/><path class="cls-6" d="M2500,1331.24c-53.54,26.3-114.25,77.15-114.25,172.56,0,0,25.42-53.1,55.52-66.75,0,0-69.6,129.45,58.73,213.49,128.34-84,58.73-213.49,58.73-213.49,30.1,13.65,55.53,66.75,55.53,66.75,0-95.41-60.72-146.26-114.26-172.56" transform="translate(-393.65 -722.82)"/><path class="cls-6" d="M2344.13,1917.69s-39.17-197.89-337.7-128.94c0,0,104.45-6.22,157.38,21,0,0-61.75-12.35-103.38-2.47,127,8.21,235.15,77.73,283.7,110.45" transform="translate(-393.65 -722.82)"/><path class="cls-6" d="M1834,2290c-37.4,31.76-69.87,147.47-69.87,147.47-61.86-181.39,75.51-299.9,75.51-299.9-48,10.58-126.33,61.66-126.33,61.66,27.62-87.43,105.7-138.86,162.21-165.62-94.4,59.07-123.51,111.35-123.51,111.35,38.7-28.23,118.57-23.11,118.57-23.11-52.2,44.56-96,189-96,189,12.71-39.52,105.86-87.3,105.86-87.3-19.59,27.62-27.81,55.84-29.63,82,29.89-36.94,107.93-14,112.33,25.89,5.64,51.16,48.31,57.53,48.31,57.53-60.36,0-65.56-71.21-109.72-61.09s-21.88,92.73-21.88,92.73C1810.74,2371.84,1834,2290,1834,2290" transform="translate(-393.65 -722.82)"/><path class="cls-6" d="M2184.52,3272.71c-6.57,29,30.46,127,30.46,127-167.84-53.37-209.45-252.92-209.45-252.92,10.48-1.53,21.38-3.66,32.08-6.07,29.13,113,125.4,187.53,125.4,187.53-7.76-48,26.81-88.92,26.81-88.92,18.18,59.71,70.21,123,105,160.5-78.45-60.74-110.26-127.12-110.26-127.12" transform="translate(-393.65 -722.82)"/><path class="cls-8" d="M1891.88,2539.82s-81.28,27-101.83,92.81c25.18-110.41,44.64-128,129.21-187.28,26.48-18.56,45.22-35.22,58.48-49.37-3.74,15.14-14.8,34.2-42.46,53.86-62.46,44.36-43.4,90-43.4,90" transform="translate(-393.65 -722.82)"/><path class="cls-8" d="M2344.13,1753.14s-66.34-121.74-146.11-71.57c0,0,34.86,33.48,73.06,50.44a285,285,0,0,0,73.05,21.13" transform="translate(-393.65 -722.82)"/><path class="cls-6" d="M2008.52,1224c126.67,102,163.47,217.93,145.13,327.34,0,0-16.74-192.15-98.93-249.33,0,0,19.79,48,17.67,78,0,0-21.17-76.21-71.28-115s-101.62-96.69-108.68-144.68c0,0-12.54,48.68-6.7,76.58,0,0-147.22-113.7-152.65-296.45,0,0,37,149.16,136.83,243.13,0,0,.6-86.33,21.75-126.85,0,0-15.86,100.42,116.86,207.3" transform="translate(-393.65 -722.82)"/><path class="cls-1" d="M2086.53,3051.34c-989,253.7-1237.76-322.24-1106.9-784.4,74.39-162.9,178-227.17,178-227.17C798.33,2568.41,1204,2919.63,1204,2919.63c-57.87-81.87-45.17-209.45-45.17-209.45,191.72,393.53,842.42,187.76,842.42,187.76,27.45,63,51.72,121.36,85.27,153.4" transform="translate(-393.65 -722.82)"/><path class="cls-1" d="M1839.78,2598.06c-68.45.09-84,91.52-84,91.52-312.72-115.72-254.07-427.21-254.07-427.21,4.37,284.79,131.43,295.92,131.43,295.92-63.81-34.58-73.4-105.86-73.4-105.86s18.35,52.22,116.45,69.16c69.17,11.94,132.36,53.18,163.63,76.47" transform="translate(-393.65 -722.82)"/><path class="cls-7" d="M1839.78,2781.29c-126.45,39.87-443.57,102.86-560.65-122.2,211.44,197,474.58,94.76,530.2,73.62,39.42-15,81-1.9,116.48,33.92-24.39.25-53.07,4.27-86,14.66" transform="translate(-393.65 -722.82)"/><path class="cls-7" d="M1162.82,2409.17c-6.09,106.91,17.65,337.87,311.43,448.26,0,0-452.81-56.28-350-562.48s444.39-523.41,541.19-514.81c-309.3,23-518.53,361.81-502.64,629" transform="translate(-393.65 -722.82)"/><path class="cls-7" d="M1896.5,2502.11c-13,12.57-20.89,21.81-27.09,31.78-24-15-66.47-33.45-134-37.82-118.57-7.66-229.41-69.46-233.78-233.7,19.76,133.8,146.09,222.31,247,216.67s147.82,23.07,147.82,23.07" transform="translate(-393.65 -722.82)"/><path class="cls-12" d="M630.23,3619.32l33.54-135.65c16.33-70,2.19-97-32.5-98.4,20.78-52.55,60.12-66.75,80.44-42,7-13,19.46-33.07,32.08-42.33,7.56,11.41,9.9,32.7,10.38,46.23,31.18-19.57,62.78,1.45,58.26,52.21-34-4.06-59.5,19.17-79,87.84q-20.76,85.52-41.53,171c58-81,91.16,21,133.09,15.84q21-90.22,42.08-180.45c14.45-66.21-.39-91.67-35.07-92.83,19.39-49.68,58.29-63.3,79.23-40,6.63-12.35,18.55-31.33,30.9-40.16,7.84,10.73,10.76,30.84,11.6,43.63,30.59-18.67,62.71,1,59.59,49.11-34.07-3.69-59.85,18.36-75.64,83.47L909,3622.78c-8.5,37.37-9.11,48.47,0,63.59-15.38,12.48-20.17,25-28.67,62.35l-28.65,125.93c-13.86,65.1,2.9,87,40.39,83-18.89,49.52-61.91,68.19-85.45,49.76-6.89,12.82-19.45,33-32.87,43.84-8.92-8.73-12.47-27.65-13.57-40-33.19,23.53-68.08,11.7-63.81-39.33,36.82-1.52,64.53-27.18,80.91-93.39l37.14-159.31c-58.26,74.61-94.08-24-134.28-12.72q-21.82,89.91-43.66,179.82c-13.75,68.64,1.33,91.66,38.82,87.24-20.32,52.28-63.75,72.24-86.66,53-7.25,13.57-20.36,34.94-34,46.45-8.63-9.14-11.61-29.09-12.35-42.08-33.76,25-68.19,12.75-62.47-41.23,36.75-1.78,65.11-29,83.37-99L596.68,3755c10-40.25,11.32-53.61,2.1-67C615.42,3671.45,620.27,3659.57,630.23,3619.32Z" transform="translate(-393.65 -722.82)"/><path class="cls-12" d="M1349.31,3684.58c-9.85,6.27-16.09,13.8-19.88,23.83-31.17,171.72-132.21,269.26-223.9,286.65a133,133,0,0,1-26.09,30.07c-7.82-5.8-12.23-18.32-15.13-28.42-82.46-7.55-136.06-101.88-99.8-286.17a33.81,33.81,0,0,0-9.1-24.38c10.53-8.22,17.15-16.37,20.22-25.87,46.52-187,136.82-276.63,217.51-287.49,6.78-10.14,15.92-22.71,25.52-28.58,5.1,7,9.69,16.58,12.61,29.93,78.64,16.73,138.34,113.74,107.17,285.47A36.7,36.7,0,0,0,1349.31,3684.58Zm-108.44.39q14.94-9.61,21.84-22.94c15.57-106.47-1.39-194.45-62-197.72-62.43-3.48-121.68,87.68-149.41,202.78a49.26,49.26,0,0,0,11.48,18.59c-8.87,5.35-14.85,10.71-19.19,17.4-22.21,116.4.36,204.55,67.59,200.61,64.45-5,118.43-89.42,142.94-197.18C1252.93,3697.64,1248.34,3691.32,1240.87,3685Zm-54.78-167.49c-1.28,66.78,6.13,120.18,22.83,167.61-35.3,46.35-64.67,99.88-91.1,166.76,1.64-65.86-6.93-118.95-23.1-166.3C1131.08,3636.66,1161.21,3583.43,1186.09,3517.48Z" transform="translate(-393.65 -722.82)"/><path class="cls-12" d="M1556.36,3934.07c-27.89-59.33-3.3-140.07-14.89-197.28a230.9,230.9,0,0,1-64.28-.42q-9.39,56.48-18.77,113c-6.55,57.05,11.2,76.65,48.64,73.79-14.84,43.53-56.68,59.05-82,42.34-5.88,11.17-16.86,28.69-29.52,37.93-9.73-7.88-14.88-24.58-17-35.41-31.55,20-67.77,8.91-67.58-35.59,37-.72,62.82-22.75,73.89-80.59q9.81-56,19.61-112c5.82-33.24,5.8-44.29-4.83-55.36,15-13.61,18.62-23.43,24.44-56.68q9.8-56,19.61-112c9.13-57.83-7.67-79.73-42.31-80.22,15.45-43.31,53-55.89,75.74-36,5.62-10.86,16-27.61,27.55-35.55,7.23,6.63,13.57,24.22,15,37.8,137.42-44.64,195.3,44.23,190.28,139.91.76,8.25,3.74,14.19,8.79,19-7.6,6.91-13.34,13.89-15.44,22.09-13.8,51.52-45.89,101.92-96.95,130.83,18.39,53.18,6.59,100.55,27.14,136.47,21.84,34.57,65,19.06,83.6-2.24C1727,3960.27,1593,4018.32,1556.36,3934.07Zm-66.46-274.22c80,19.26,128.33-23.87,143.7-77,.28-8.32-3.25-16.7-8.82-24,7.36-4.63,10-9.35,14-17.6-2.52-54.58-40.56-98.33-116.91-68.49-.6,3.64-7.59,40.05-8.4,44.91Z" transform="translate(-393.65 -722.82)"/><path class="cls-12" d="M1810.2,3630.22q6.42-52.51,12.83-105c5.63-54.23-12.45-74.48-47-74.48,12.85-40.54,49.59-52.93,73.42-34.72,5-10.25,14.27-26.09,25.33-33.74,9.19,8.44,14.74,24.75,17.29,35.18,27.85-16.29,62.3-1.37,65.77,38.5-52.92-10.62-68.11,55.72-42.13,105.23,24.46,55.17,62.6,117.56,93,171.35q9.13-101.92,18.28-203.86c3.74-52.92-15-72.52-49.6-72.24,11.46-39.51,47.73-52,72.16-34.43,4.6-10,13.35-25.58,24.14-33.16,9.47,8.14,15.59,24,18.49,34.17,27.26-16.18,62.2-2,67.08,37.09-34.39-1.7-56.36,16.9-61.45,69.5l-7.92,101.81c-2.35,30.2-1.14,39.16,10.54,51.44-13.37,10.08-16.12,20.16-18.47,50.36l-8.7,111.88-.09,1.12c.55,43.59,20.44,59.92,55.79,58.18-10.72,40.18-51.35,53.37-78.38,37.26-4.86,10.17-14.25,26.06-26.11,34.23-10.55-7.55-17.3-23.07-20.47-33.1-29.85,17.6-67.38,6.41-71.33-34.21,20.13-.52,35.78-6.53,46.95-19.16,35.25-36.68-8.58-92.11-23.44-119.2q-38.48-69.12-74.85-139.61-11.58,104.07-23.17,208.15c-3,53.73,16,72.51,53.37,70.36-12.15,41-53.2,55-79.63,38.76-5.22,10.45-15.17,26.78-27.31,35.26-10.26-7.6-16.46-23.41-19.26-33.64-30.45,18.32-67.52,7.25-70-34.42,37.12-.15,61.69-20.49,69.26-74.73q6.42-52.51,12.83-105c3.81-31.17,3.12-41.54-8.19-51.92C1803.35,3670.61,1806.39,3661.4,1810.2,3630.22Z" transform="translate(-393.65 -722.82)"/><path class="cls-12" d="M2275,3832.78c.1,19.86,3.46,34.17,8,44.06,27.46,14.06,55.8,11.6,80.21-.66,50-24.53,71-101.37,49.88-125.51,38,7.63,51.46,46,37.63,106.41-8.66,43.93-20.93,49.49-16.77,100-23.13-13-42.36-11.82-65.87-6.12-41.89,9.13-93.68,5.43-113.13-10.86-4.52,10-12.26,23.36-23.86,31.29-10.81-7.56-18.1-22.92-21.6-32.83-29.3,17.06-67.25,5.65-72.56-34.3,37.22.47,60.48-18.68,64.4-70.77l5.76-100.87c1.71-29.93.32-39.89-11.7-49.87,13.33-12.21,15.75-21.07,17.46-51q2.88-50.43,5.77-100.87c2-52.08-17.44-71.2-52-70.65,10.14-38.85,46-51.46,71-34.44,4.26-9.91,12.49-25.3,23-32.87,9.74,7.91,15.57,21.26,18.8,31.25,19.35-16.32,66.49-20.09,104.12-11,21.1,5.68,38.73,6.88,60.21-6.18.79,7.69-5,20.84-13.54,30.68,11.47,26.43,17.37,79.12-6.31,124.09-1.89-64.71-82.59-105.95-124-74.42-5.11,9.89-9.51,24.21-11.35,44.08l-5.31,118.12,25.07,0c34.8-1.08,48.92-20.88,49-52.79,27.42,7.78,35.3,39.65,23,64.94,6.67,3.3,18.07,11,22.69,20.88-5.05,8.79-16.93,16.5-23.83,19.8,11,25.28,1.42,57.15-27.41,65,2-31.91-11.05-51.69-46.08-52.73l-25.36.05Z" transform="translate(-393.65 -722.82)"/><path class="cls-12" d="M2823,3682.66c-12.12,9.94-14.91,34.22-16.69,59.6-4.07,128.26-108.67,214.82-223.05,193.69-4,9.87-12,25.21-23.19,32.88-11.23-7.69-19.36-23-23.4-32.92-28.4,16.45-67,4.51-74.48-35,37.28,1,59.53-17.66,60.63-69.22q.15-49.91.31-99.82c.09-29.61-1.84-39.48-14.39-49.36,12.67-12.06,14.61-20.84,14.7-50.45q.16-49.92.32-99.82c-.84-51.56-21.27-70.2-55.76-69.21,8-38.38,43.16-51.43,69.06-35,3.72-9.88,11.11-25.23,21.22-32.92,10.15,7.67,17.65,25.21,21.44,35.07,141.78-21.36,205.41,72.19,224.41,200.51,0,.37,0,.74,0,1.11,1.31,7.73,2.48,12.14,2.84,19.87C2809.54,3665,2814.84,3674.91,2823,3682.66Zm-225.14,191.89c91,21.14,143.33-71.84,136.9-162.23-1.38-12.11-5.61-22-14.57-29.73,8.49-7.7,12-18.71,12.55-30.82-11.23-94.74-55.58-173.53-138.49-155.74q.18,68,.34,136c.28,29.62,3.24,38.4,16,50.47-12.49,9.87-15.33,19.75-15,49.37Q2596.67,3803.23,2597.84,3874.55Z" transform="translate(-393.65 -722.82)"/><path class="cls-12" d="M3201.3,3791.56c-9.87,9-7.79,19.24-9.94,36.27-5.54,50-31.42,90.1-68.69,112.72-36,23.76-129.51,26.75-173.84-.7-3.37,9.94-10.46,25.35-21.18,32.9-11.69-8-20.75-23.7-25.4-33.75-27.39,16.13-66.74,3.34-76.61-36.5,37.35,1.56,58.45-16.93,56.4-69q-2.88-50.45-5.78-100.88c-1.71-29.93-4.24-39.91-17.4-49.89,11.93-12.18,13.34-21.05,11.63-51q-2.89-50.43-5.78-100.87c-4-52.12-25.55-70.65-60-69.14,5.7-38.72,40-52.57,66.91-36.38,3.12-10.05,9.57-25.72,19.21-33.7,8.63,5.38,18.89,20.76,23.42,32.94,123.87-49.65,202,20.75,219.19,108.58,4.36,14.73,1.14,20.45,13.59,30.54-10.11,12.64-8.82,16-11.13,30.83-4.26,23.9-11.71,45.49-23.58,62.48,33.91,21.44,60.94,56.8,74.06,105.91C3190.82,3776.61,3193.4,3782.33,3201.3,3791.56Zm-259-150c67.56,14.4,104.56-6.88,119.71-39.71,5.59-12.43,8.23-24.89-5.23-37.15,11.45-10.26,10.27-22.69,2.45-36.11-18.1-41.58-64-68.54-126.58-39.68.24,3.35,1.62,36.78,1.92,41.24Q2938.46,3585.85,2942.32,3641.56Zm164.21,148.72c8-8.92,7.49-24.75,1.41-37.23a110.36,110.36,0,0,0-49.67-52.13c-29.06,12.28-64.88,16.55-111.09,10.82q5.06,73,10.12,146c37.85,42.72,134.54,38.37,155.15-25.59C3117.82,3815.28,3122.52,3802.89,3106.53,3790.28Z" transform="translate(-393.65 -722.82)"/><path class="cls-12" d="M3329.71,3841.05c3.64,20.88,9.55,36.07,15.9,46.67,30,15.94,57.91,14.66,80.14,2.54,45.63-24.05,52.83-106.86,27.44-133.22,39.36,8.73,59.67,50.9,56.66,116-.8,47.35-12.07,52.71,1.12,107.56-25.46-15.39-44.48-15-67-10.2-40.29,7.5-92.82.57-115.21-17.5-2.74,10.26-8.13,23.85-18.35,31.47-12.18-8.53-22.21-24.95-27.48-35.44-26.34,16.22-66.44,2.23-78.82-39,37.41,2.21,57.31-16.6,52-70.58L3244,3734.91c-3.59-31-6.75-41.36-20.54-51.7,11.17-12.58,12-21.79,8.42-52.79l-12.12-104.48c-7.26-54-30-72.88-64.34-70.8,3.26-40,36.72-55,64.65-38.71,2.49-10.48,8-26.86,17.11-35.35,11.1,7.66,19.29,21.28,24.29,31.56,16.39-18,62.71-24.71,101.89-17,22.06,4.93,39.87,5.39,59-9.88,2.16,8.27-1.26,22.79-8,33.8,16.18,27.85,31.51,84.92,15.91,133.95-13.48-70.16-101.38-110.49-137.11-75.55-3.34,10.58-5.19,25.75-3.49,46.63l15.72,124,25.06-.07c34.58-1.22,45.15-22.38,39.5-56.37,28.77,7.84,42.35,42,34.6,69.1,7.25,3.52,20,11.77,26.4,22.41-3.48,9.43-14,17.62-20.28,21.11,15.51,27.15,11.64,61.28-15.79,69-3.71-34-20.27-55.2-55.48-56.58L3314,3717Z" transform="translate(-393.65 -722.82)"/><path class="cls-12" d="M3852.53,3857.55c24.36,60.13,52.32,90.89,91.76,84.35,9.39,46.56-22.1,59.41-58.44,36.91-.82,11.26-1.43,28.79-8.88,37-13.9-9.74-28.41-28.16-37.62-39.93-19.7,17.43-67,.67-91-44.68,33.8,10.41,56.67-5.77,30.7-76.48q-18.2-47.88-36.13-95.4c-17,24.53-28.16,50.1-32.07,78.21-13.95-28.7-34.27-55-59-79.81q-1.33,46.36-2.93,92.41c-1.49,67.75,27.5,86,58.25,79-8.3,43.55-50.81,54.24-77.08,34.86-5.28,10.54-13.68,26.87-24.53,34.61-12.55-9.06-17.25-26-22-37-29.38,17.56-66.15,1.47-72.49-41.25,42.54,10.06,60.47-16.41,63.3-72.68q2.68-54.42,5-109.28c1.52-32.56.66-43.5-11.76-54.41,12.36-13.26,14.63-23,15.94-55.75q1.91-55.31,3.41-111.07c.64-57.68-18.79-77.8-54.86-75,6.63-40.33,47.71-61.21,78.86-43.12,1.78-11.25,6.16-28.91,14.74-38.2,11.65,8,22.13,24.89,27.84,35.85,24.86-22.73,74.07-8.36,94.66,35.34-34.63.59-47.55,22.55-26.37,81q21.39,56.61,43.16,113.76c13.11,33.93,18.87,44,36,58-8.47,11.35-5.41,22.64,7.91,56.87Q3830.49,3799.35,3852.53,3857.55Zm-113.2-107q-42-110-82.47-218-1.58,109.23-4.6,216.66c16.55-23,25.61-48.73,29.29-77.12A286.64,286.64,0,0,0,3739.33,3750.58Z" transform="translate(-393.65 -722.82)"/><path class="cls-12" d="M4048.14,3792.1c-24.37-4.58-66.57,17.8-56.4,67.35,14,53.66,55.48,76.88,91.34,77.86,78.79,5.92,77.43-134.43-13.44-199.19-15-10.94-27.09-17.69-39.42-7.27-7.16-20-12.46-26.65-29.23-37.32-36.29-25.28-67.47-50.1-96.78-95.25-43.27-67-44.62-160.87-5.2-210.21,32.9-40.63,84.3-52.48,138.25-16.65,23.36,7.89,50.9.4,63.72-21.79,2.2,9.67.75,40.69-6.7,53.73,16.93,29.35,36.06,125.37,2.32,184.83-2.37-83.63-45.24-147.92-101-148.45-29.18.38-47.87,28.14-46,59.9,3.58,48.94,37.59,83.76,69.28,106.12,12.91,6.49,22.79,7.73,30.52,3.58q5.37,18.1,21.42,32.14c21.5,14.7,38.68,26.94,48.52,36.48,42.9,36.76,77,84.35,90.65,161.55,27.18,152.63-71,200.25-178.23,160.77-31.57-12.71-68.13-26.47-80.44,7-24.65-28.41-25.34-62.51-12.45-82.24-48.69-68.09-43.28-130.36-15.55-162.31C3951.33,3731.12,4001.61,3729.86,4048.14,3792.1Z" transform="translate(-393.65 -722.82)"/><path class="cls-12" d="M4256,3344.79c.6-13.27,3.59-28.3,9.19-36.28,10,6.39,19,20.36,26.43,31.57,22.17-21.37,39.17-24.81,81.68-16.84,23,5.32,41.88,5.17,58.48-15.21,3.58,10.51,2.61,29.26-2.31,43.6,20.07,35,46,107.81,38.82,170.67-25.72-91-101-139.26-129.73-93.8-3,15.07-1.19,34.2,4.82,59q16.1,66.42,32.2,132.83c9.55,39.41,14.28,51,30.76,67.22-9.35,13.11-8.12,26.18,1.43,65.6q16.1,66.41,32.2,132.82c17.56,68.55,45.68,95.19,82.46,96.87,5.18,52.85-30.43,64.85-64,40.4.14,12.82-3.05,32.37-11.79,41.36-13.59-11.26-26.5-32.17-33.62-45.46-23.14,19-66.42-.5-86.21-51.73,37.5,4.28,53.83-18.27,38.78-85.62l-30.93-130.28c-9.18-38.65-14.2-51.59-29.8-64.5,8.85-15.63,8-27.13-1.14-65.78q-15.47-65.14-30.94-130.28c-5.78-24.34-13-42.81-22.93-56.67-48.82-38.5-99.24,16.65-83.34,99.47-35.68-56-43-122.35-39.57-156.62-11.18-11.86-20.48-28-21.75-37.72,25,14.76,43.15,12,62.7,3C4202.18,3328,4222.28,3325.79,4256,3344.79Z" transform="translate(-393.65 -722.82)"/><path class="cls-13" d="M630.23,3619.32l33.54-135.65c16.33-70,2.19-97-32.5-98.4,20.78-52.55,60.12-66.75,80.44-42,7-13,19.46-33.07,32.08-42.33,7.56,11.41,9.9,32.7,10.38,46.23,31.18-19.57,62.78,1.45,58.26,52.21-34-4.06-59.5,19.17-79,87.84q-20.76,85.52-41.53,171c58-81,91.16,21,133.09,15.84q21-90.22,42.08-180.45c14.45-66.21-.39-91.67-35.07-92.83,19.39-49.68,58.29-63.3,79.23-40,6.63-12.35,18.55-31.33,30.9-40.16,7.84,10.73,10.76,30.84,11.6,43.63,30.59-18.67,62.71,1,59.59,49.11-34.07-3.69-59.85,18.36-75.64,83.47L909,3622.78c-8.5,37.37-9.11,48.47,0,63.59-15.38,12.48-20.17,25-28.67,62.35l-28.65,125.93c-13.86,65.1,2.9,87,40.39,83-18.89,49.52-61.91,68.19-85.45,49.76-6.89,12.82-19.45,33-32.87,43.84-8.92-8.73-12.47-27.65-13.57-40-33.19,23.53-68.08,11.7-63.81-39.33,36.82-1.52,64.53-27.18,80.91-93.39l37.14-159.31c-58.26,74.61-94.08-24-134.28-12.72q-21.82,89.91-43.66,179.82c-13.75,68.64,1.33,91.66,38.82,87.24-20.32,52.28-63.75,72.24-86.66,53-7.25,13.57-20.36,34.94-34,46.45-8.63-9.14-11.61-29.09-12.35-42.08-33.76,25-68.19,12.75-62.47-41.23,36.75-1.78,65.11-29,83.37-99L596.68,3755c10-40.25,11.32-53.61,2.1-67C615.42,3671.45,620.27,3659.57,630.23,3619.32Z" transform="translate(-393.65 -722.82)"/><path class="cls-13" d="M1349.31,3684.58c-9.85,6.27-16.09,13.8-19.88,23.83-31.17,171.72-132.21,269.26-223.9,286.65a133,133,0,0,1-26.09,30.07c-7.82-5.8-12.23-18.32-15.13-28.42-82.46-7.55-136.06-101.88-99.8-286.17a33.81,33.81,0,0,0-9.1-24.38c10.53-8.22,17.15-16.37,20.22-25.87,46.52-187,136.82-276.63,217.51-287.49,6.78-10.14,15.92-22.71,25.52-28.58,5.1,7,9.69,16.58,12.61,29.93,78.64,16.73,138.34,113.74,107.17,285.47A36.7,36.7,0,0,0,1349.31,3684.58Zm-108.44.39q14.94-9.61,21.84-22.94c15.57-106.47-1.39-194.45-62-197.72-62.43-3.48-121.68,87.68-149.41,202.78a49.26,49.26,0,0,0,11.48,18.59c-8.87,5.35-14.85,10.71-19.19,17.4-22.21,116.4.36,204.55,67.59,200.61,64.45-5,118.43-89.42,142.94-197.18C1252.93,3697.64,1248.34,3691.32,1240.87,3685Zm-54.78-167.49c-1.28,66.78,6.13,120.18,22.83,167.61-35.3,46.35-64.67,99.88-91.1,166.76,1.64-65.86-6.93-118.95-23.1-166.3C1131.08,3636.66,1161.21,3583.43,1186.09,3517.48Z" transform="translate(-393.65 -722.82)"/><path class="cls-13" d="M1556.36,3934.07c-27.89-59.33-3.3-140.07-14.89-197.28a230.9,230.9,0,0,1-64.28-.42q-9.39,56.48-18.77,113c-6.55,57.05,11.2,76.65,48.64,73.79-14.84,43.53-56.68,59.05-82,42.34-5.88,11.17-16.86,28.69-29.52,37.93-9.73-7.88-14.88-24.58-17-35.41-31.55,20-67.77,8.91-67.58-35.59,37-.72,62.82-22.75,73.89-80.59q9.81-56,19.61-112c5.82-33.24,5.8-44.29-4.83-55.36,15-13.61,18.62-23.43,24.44-56.68q9.8-56,19.61-112c9.13-57.83-7.67-79.73-42.31-80.22,15.45-43.31,53-55.89,75.74-36,5.62-10.86,16-27.61,27.55-35.55,7.23,6.63,13.57,24.22,15,37.8,137.42-44.64,195.3,44.23,190.28,139.91.76,8.25,3.74,14.19,8.79,19-7.6,6.91-13.34,13.89-15.44,22.09-13.8,51.52-45.89,101.92-96.95,130.83,18.39,53.18,6.59,100.55,27.14,136.47,21.84,34.57,65,19.06,83.6-2.24C1727,3960.27,1593,4018.32,1556.36,3934.07Zm-66.46-274.22c80,19.26,128.33-23.87,143.7-77,.28-8.32-3.25-16.7-8.82-24,7.36-4.63,10-9.35,14-17.6-2.52-54.58-40.56-98.33-116.91-68.49-.6,3.64-7.59,40.05-8.4,44.91Z" transform="translate(-393.65 -722.82)"/><path class="cls-13" d="M1810.2,3630.22q6.42-52.51,12.83-105c5.63-54.23-12.45-74.48-47-74.48,12.85-40.54,49.59-52.93,73.42-34.72,5-10.25,14.27-26.09,25.33-33.74,9.19,8.44,14.74,24.75,17.29,35.18,27.85-16.29,62.3-1.37,65.77,38.5-52.92-10.62-68.11,55.72-42.13,105.23,24.46,55.17,62.6,117.56,93,171.35q9.13-101.92,18.28-203.86c3.74-52.92-15-72.52-49.6-72.24,11.46-39.51,47.73-52,72.16-34.43,4.6-10,13.35-25.58,24.14-33.16,9.47,8.14,15.59,24,18.49,34.17,27.26-16.18,62.2-2,67.08,37.09-34.39-1.7-56.36,16.9-61.45,69.5l-7.92,101.81c-2.35,30.2-1.14,39.16,10.54,51.44-13.37,10.08-16.12,20.16-18.47,50.36l-8.7,111.88-.09,1.12c.55,43.59,20.44,59.92,55.79,58.18-10.72,40.18-51.35,53.37-78.38,37.26-4.86,10.17-14.25,26.06-26.11,34.23-10.55-7.55-17.3-23.07-20.47-33.1-29.85,17.6-67.38,6.41-71.33-34.21,20.13-.52,35.78-6.53,46.95-19.16,35.25-36.68-8.58-92.11-23.44-119.2q-38.48-69.12-74.85-139.61-11.58,104.07-23.17,208.15c-3,53.73,16,72.51,53.37,70.36-12.15,41-53.2,55-79.63,38.76-5.22,10.45-15.17,26.78-27.31,35.26-10.26-7.6-16.46-23.41-19.26-33.64-30.45,18.32-67.52,7.25-70-34.42,37.12-.15,61.69-20.49,69.26-74.73q6.42-52.51,12.83-105c3.81-31.17,3.12-41.54-8.19-51.92C1803.35,3670.61,1806.39,3661.4,1810.2,3630.22Z" transform="translate(-393.65 -722.82)"/><path class="cls-13" d="M2275,3832.78c.1,19.86,3.46,34.17,8,44.06,27.46,14.06,55.8,11.6,80.21-.66,50-24.53,71-101.37,49.88-125.51,38,7.63,51.46,46,37.63,106.41-8.66,43.93-20.93,49.49-16.77,100-23.13-13-42.36-11.82-65.87-6.12-41.89,9.13-93.68,5.43-113.13-10.86-4.52,10-12.26,23.36-23.86,31.29-10.81-7.56-18.1-22.92-21.6-32.83-29.3,17.06-67.25,5.65-72.56-34.3,37.22.47,60.48-18.68,64.4-70.77l5.76-100.87c1.71-29.93.32-39.89-11.7-49.87,13.33-12.21,15.75-21.07,17.46-51q2.88-50.43,5.77-100.87c2-52.08-17.44-71.2-52-70.65,10.14-38.85,46-51.46,71-34.44,4.26-9.91,12.49-25.3,23-32.87,9.74,7.91,15.57,21.26,18.8,31.25,19.35-16.32,66.49-20.09,104.12-11,21.1,5.68,38.73,6.88,60.21-6.18.79,7.69-5,20.84-13.54,30.68,11.47,26.43,17.37,79.12-6.31,124.09-1.89-64.71-82.59-105.95-124-74.42-5.11,9.89-9.51,24.21-11.35,44.08l-5.31,118.12,25.07,0c34.8-1.08,48.92-20.88,49-52.79,27.42,7.78,35.3,39.65,23,64.94,6.67,3.3,18.07,11,22.69,20.88-5.05,8.79-16.93,16.5-23.83,19.8,11,25.28,1.42,57.15-27.41,65,2-31.91-11.05-51.69-46.08-52.73l-25.36.05Z" transform="translate(-393.65 -722.82)"/><path class="cls-13" d="M2823,3682.66c-12.12,9.94-14.91,34.22-16.69,59.6-4.07,128.26-108.67,214.82-223.05,193.69-4,9.87-12,25.21-23.19,32.88-11.23-7.69-19.36-23-23.4-32.92-28.4,16.45-67,4.51-74.48-35,37.28,1,59.53-17.66,60.63-69.22q.15-49.91.31-99.82c.09-29.61-1.84-39.48-14.39-49.36,12.67-12.06,14.61-20.84,14.7-50.45q.16-49.92.32-99.82c-.84-51.56-21.27-70.2-55.76-69.21,8-38.38,43.16-51.43,69.06-35,3.72-9.88,11.11-25.23,21.22-32.92,10.15,7.67,17.65,25.21,21.44,35.07,141.78-21.36,205.41,72.19,224.41,200.51,0,.37,0,.74,0,1.11,1.31,7.73,2.48,12.14,2.84,19.87C2809.54,3665,2814.84,3674.91,2823,3682.66Zm-225.14,191.89c91,21.14,143.33-71.84,136.9-162.23-1.38-12.11-5.61-22-14.57-29.73,8.49-7.7,12-18.71,12.55-30.82-11.23-94.74-55.58-173.53-138.49-155.74q.18,68,.34,136c.28,29.62,3.24,38.4,16,50.47-12.49,9.87-15.33,19.75-15,49.37Q2596.67,3803.23,2597.84,3874.55Z" transform="translate(-393.65 -722.82)"/><path class="cls-13" d="M3201.3,3791.56c-9.87,9-7.79,19.24-9.94,36.27-5.54,50-31.42,90.1-68.69,112.72-36,23.76-129.51,26.75-173.84-.7-3.37,9.94-10.46,25.35-21.18,32.9-11.69-8-20.75-23.7-25.4-33.75-27.39,16.13-66.74,3.34-76.61-36.5,37.35,1.56,58.45-16.93,56.4-69q-2.88-50.45-5.78-100.88c-1.71-29.93-4.24-39.91-17.4-49.89,11.93-12.18,13.34-21.05,11.63-51q-2.89-50.43-5.78-100.87c-4-52.12-25.55-70.65-60-69.14,5.7-38.72,40-52.57,66.91-36.38,3.12-10.05,9.57-25.72,19.21-33.7,8.63,5.38,18.89,20.76,23.42,32.94,123.87-49.65,202,20.75,219.19,108.58,4.36,14.73,1.14,20.45,13.59,30.54-10.11,12.64-8.82,16-11.13,30.83-4.26,23.9-11.71,45.49-23.58,62.48,33.91,21.44,60.94,56.8,74.06,105.91C3190.82,3776.61,3193.4,3782.33,3201.3,3791.56Zm-259-150c67.56,14.4,104.56-6.88,119.71-39.71,5.59-12.43,8.23-24.89-5.23-37.15,11.45-10.26,10.27-22.69,2.45-36.11-18.1-41.58-64-68.54-126.58-39.68.24,3.35,1.62,36.78,1.92,41.24Q2938.46,3585.85,2942.32,3641.56Zm164.21,148.72c8-8.92,7.49-24.75,1.41-37.23a110.36,110.36,0,0,0-49.67-52.13c-29.06,12.28-64.88,16.55-111.09,10.82q5.06,73,10.12,146c37.85,42.72,134.54,38.37,155.15-25.59C3117.82,3815.28,3122.52,3802.89,3106.53,3790.28Z" transform="translate(-393.65 -722.82)"/><path class="cls-13" d="M3329.71,3841.05c3.64,20.88,9.55,36.07,15.9,46.67,30,15.94,57.91,14.66,80.14,2.54,45.63-24.05,52.83-106.86,27.44-133.22,39.36,8.73,59.67,50.9,56.66,116-.8,47.35-12.07,52.71,1.12,107.56-25.46-15.39-44.48-15-67-10.2-40.29,7.5-92.82.57-115.21-17.5-2.74,10.26-8.13,23.85-18.35,31.47-12.18-8.53-22.21-24.95-27.48-35.44-26.34,16.22-66.44,2.23-78.82-39,37.41,2.21,57.31-16.6,52-70.58L3244,3734.91c-3.59-31-6.75-41.36-20.54-51.7,11.17-12.58,12-21.79,8.42-52.79l-12.12-104.48c-7.26-54-30-72.88-64.34-70.8,3.26-40,36.72-55,64.65-38.71,2.49-10.48,8-26.86,17.11-35.35,11.1,7.66,19.29,21.28,24.29,31.56,16.39-18,62.71-24.71,101.89-17,22.06,4.93,39.87,5.39,59-9.88,2.16,8.27-1.26,22.79-8,33.8,16.18,27.85,31.51,84.92,15.91,133.95-13.48-70.16-101.38-110.49-137.11-75.55-3.34,10.58-5.19,25.75-3.49,46.63l15.72,124,25.06-.07c34.58-1.22,45.15-22.38,39.5-56.37,28.77,7.84,42.35,42,34.6,69.1,7.25,3.52,20,11.77,26.4,22.41-3.48,9.43-14,17.62-20.28,21.11,15.51,27.15,11.64,61.28-15.79,69-3.71-34-20.27-55.2-55.48-56.58L3314,3717Z" transform="translate(-393.65 -722.82)"/><path class="cls-13" d="M3852.53,3857.55c24.36,60.13,52.32,90.89,91.76,84.35,9.39,46.56-22.1,59.41-58.44,36.91-.82,11.26-1.43,28.79-8.88,37-13.9-9.74-28.41-28.16-37.62-39.93-19.7,17.43-67,.67-91-44.68,33.8,10.41,56.67-5.77,30.7-76.48q-18.2-47.88-36.13-95.4c-17,24.53-28.16,50.1-32.07,78.21-13.95-28.7-34.27-55-59-79.81q-1.33,46.36-2.93,92.41c-1.49,67.75,27.5,86,58.25,79-8.3,43.55-50.81,54.24-77.08,34.86-5.28,10.54-13.68,26.87-24.53,34.61-12.55-9.06-17.25-26-22-37-29.38,17.56-66.15,1.47-72.49-41.25,42.54,10.06,60.47-16.41,63.3-72.68q2.68-54.42,5-109.28c1.52-32.56.66-43.5-11.76-54.41,12.36-13.26,14.63-23,15.94-55.75q1.91-55.31,3.41-111.07c.64-57.68-18.79-77.8-54.86-75,6.63-40.33,47.71-61.21,78.86-43.12,1.78-11.25,6.16-28.91,14.74-38.2,11.65,8,22.13,24.89,27.84,35.85,24.86-22.73,74.07-8.36,94.66,35.34-34.63.59-47.55,22.55-26.37,81q21.39,56.61,43.16,113.76c13.11,33.93,18.87,44,36,58-8.47,11.35-5.41,22.64,7.91,56.87Q3830.49,3799.35,3852.53,3857.55Zm-113.2-107q-42-110-82.47-218-1.58,109.23-4.6,216.66c16.55-23,25.61-48.73,29.29-77.12A286.64,286.64,0,0,0,3739.33,3750.58Z" transform="translate(-393.65 -722.82)"/><path class="cls-13" d="M4048.14,3792.1c-24.37-4.58-66.57,17.8-56.4,67.35,14,53.66,55.48,76.88,91.34,77.86,78.79,5.92,77.43-134.43-13.44-199.19-15-10.94-27.09-17.69-39.42-7.27-7.16-20-12.46-26.65-29.23-37.32-36.29-25.28-67.47-50.1-96.78-95.25-43.27-67-44.62-160.87-5.2-210.21,32.9-40.63,84.3-52.48,138.25-16.65,23.36,7.89,50.9.4,63.72-21.79,2.2,9.67.75,40.69-6.7,53.73,16.93,29.35,36.06,125.37,2.32,184.83-2.37-83.63-45.24-147.92-101-148.45-29.18.38-47.87,28.14-46,59.9,3.58,48.94,37.59,83.76,69.28,106.12,12.91,6.49,22.79,7.73,30.52,3.58q5.37,18.1,21.42,32.14c21.5,14.7,38.68,26.94,48.52,36.48,42.9,36.76,77,84.35,90.65,161.55,27.18,152.63-71,200.25-178.23,160.77-31.57-12.71-68.13-26.47-80.44,7-24.65-28.41-25.34-62.51-12.45-82.24-48.69-68.09-43.28-130.36-15.55-162.31C3951.33,3731.12,4001.61,3729.86,4048.14,3792.1Z" transform="translate(-393.65 -722.82)"/><path class="cls-13" d="M4256,3344.79c.6-13.27,3.59-28.3,9.19-36.28,10,6.39,19,20.36,26.43,31.57,22.17-21.37,39.17-24.81,81.68-16.84,23,5.32,41.88,5.17,58.48-15.21,3.58,10.51,2.61,29.26-2.31,43.6,20.07,35,46,107.81,38.82,170.67-25.72-91-101-139.26-129.73-93.8-3,15.07-1.19,34.2,4.82,59q16.1,66.42,32.2,132.83c9.55,39.41,14.28,51,30.76,67.22-9.35,13.11-8.12,26.18,1.43,65.6q16.1,66.41,32.2,132.82c17.56,68.55,45.68,95.19,82.46,96.87,5.18,52.85-30.43,64.85-64,40.4.14,12.82-3.05,32.37-11.79,41.36-13.59-11.26-26.5-32.17-33.62-45.46-23.14,19-66.42-.5-86.21-51.73,37.5,4.28,53.83-18.27,38.78-85.62l-30.93-130.28c-9.18-38.65-14.2-51.59-29.8-64.5,8.85-15.63,8-27.13-1.14-65.78q-15.47-65.14-30.94-130.28c-5.78-24.34-13-42.81-22.93-56.67-48.82-38.5-99.24,16.65-83.34,99.47-35.68-56-43-122.35-39.57-156.62-11.18-11.86-20.48-28-21.75-37.72,25,14.76,43.15,12,62.7,3C4202.18,3328,4222.28,3325.79,4256,3344.79Z" transform="translate(-393.65 -722.82)"/><path class="cls-14" d="M630.23,3619.32l33.54-135.65c16.33-70,2.19-97-32.5-98.4,20.78-52.55,60.12-66.75,80.44-42,7-13,19.46-33.07,32.08-42.33,7.56,11.41,9.9,32.7,10.38,46.23,31.18-19.57,62.78,1.45,58.26,52.21-34-4.06-59.5,19.17-79,87.84q-20.76,85.52-41.53,171c58-81,91.16,21,133.09,15.84q21-90.22,42.08-180.45c14.45-66.21-.39-91.67-35.07-92.83,19.39-49.68,58.29-63.3,79.23-40,6.63-12.35,18.55-31.33,30.9-40.16,7.84,10.73,10.76,30.84,11.6,43.63,30.59-18.67,62.71,1,59.59,49.11-34.07-3.69-59.85,18.36-75.64,83.47L909,3622.78c-8.5,37.37-9.11,48.47,0,63.59-15.38,12.48-20.17,25-28.67,62.35l-28.65,125.93c-13.86,65.1,2.9,87,40.39,83-18.89,49.52-61.91,68.19-85.45,49.76-6.89,12.82-19.45,33-32.87,43.84-8.92-8.73-12.47-27.65-13.57-40-33.19,23.53-68.08,11.7-63.81-39.33,36.82-1.52,64.53-27.18,80.91-93.39l37.14-159.31c-58.26,74.61-94.08-24-134.28-12.72q-21.82,89.91-43.66,179.82c-13.75,68.64,1.33,91.66,38.82,87.24-20.32,52.28-63.75,72.24-86.66,53-7.25,13.57-20.36,34.94-34,46.45-8.63-9.14-11.61-29.09-12.35-42.08-33.76,25-68.19,12.75-62.47-41.23,36.75-1.78,65.11-29,83.37-99L596.68,3755c10-40.25,11.32-53.61,2.1-67C615.42,3671.45,620.27,3659.57,630.23,3619.32Z" transform="translate(-393.65 -722.82)"/><path class="cls-14" d="M1349.31,3684.58c-9.85,6.27-16.09,13.8-19.88,23.83-31.17,171.72-132.21,269.26-223.9,286.65a133,133,0,0,1-26.09,30.07c-7.82-5.8-12.23-18.32-15.13-28.42-82.46-7.55-136.06-101.88-99.8-286.17a33.81,33.81,0,0,0-9.1-24.38c10.53-8.22,17.15-16.37,20.22-25.87,46.52-187,136.82-276.63,217.51-287.49,6.78-10.14,15.92-22.71,25.52-28.58,5.1,7,9.69,16.58,12.61,29.93,78.64,16.73,138.34,113.74,107.17,285.47A36.7,36.7,0,0,0,1349.31,3684.58Zm-108.44.39q14.94-9.61,21.84-22.94c15.57-106.47-1.39-194.45-62-197.72-62.43-3.48-121.68,87.68-149.41,202.78a49.26,49.26,0,0,0,11.48,18.59c-8.87,5.35-14.85,10.71-19.19,17.4-22.21,116.4.36,204.55,67.59,200.61,64.45-5,118.43-89.42,142.94-197.18C1252.93,3697.64,1248.34,3691.32,1240.87,3685Zm-54.78-167.49c-1.28,66.78,6.13,120.18,22.83,167.61-35.3,46.35-64.67,99.88-91.1,166.76,1.64-65.86-6.93-118.95-23.1-166.3C1131.08,3636.66,1161.21,3583.43,1186.09,3517.48Z" transform="translate(-393.65 -722.82)"/><path class="cls-14" d="M1556.36,3934.07c-27.89-59.33-3.3-140.07-14.89-197.28a230.9,230.9,0,0,1-64.28-.42q-9.39,56.48-18.77,113c-6.55,57.05,11.2,76.65,48.64,73.79-14.84,43.53-56.68,59.05-82,42.34-5.88,11.17-16.86,28.69-29.52,37.93-9.73-7.88-14.88-24.58-17-35.41-31.55,20-67.77,8.91-67.58-35.59,37-.72,62.82-22.75,73.89-80.59q9.81-56,19.61-112c5.82-33.24,5.8-44.29-4.83-55.36,15-13.61,18.62-23.43,24.44-56.68q9.8-56,19.61-112c9.13-57.83-7.67-79.73-42.31-80.22,15.45-43.31,53-55.89,75.74-36,5.62-10.86,16-27.61,27.55-35.55,7.23,6.63,13.57,24.22,15,37.8,137.42-44.64,195.3,44.23,190.28,139.91.76,8.25,3.74,14.19,8.79,19-7.6,6.91-13.34,13.89-15.44,22.09-13.8,51.52-45.89,101.92-96.95,130.83,18.39,53.18,6.59,100.55,27.14,136.47,21.84,34.57,65,19.06,83.6-2.24C1727,3960.27,1593,4018.32,1556.36,3934.07Zm-66.46-274.22c80,19.26,128.33-23.87,143.7-77,.28-8.32-3.25-16.7-8.82-24,7.36-4.63,10-9.35,14-17.6-2.52-54.58-40.56-98.33-116.91-68.49-.6,3.64-7.59,40.05-8.4,44.91Z" transform="translate(-393.65 -722.82)"/><path class="cls-14" d="M1810.2,3630.22q6.42-52.51,12.83-105c5.63-54.23-12.45-74.48-47-74.48,12.85-40.54,49.59-52.93,73.42-34.72,5-10.25,14.27-26.09,25.33-33.74,9.19,8.44,14.74,24.75,17.29,35.18,27.85-16.29,62.3-1.37,65.77,38.5-52.92-10.62-68.11,55.72-42.13,105.23,24.46,55.17,62.6,117.56,93,171.35q9.13-101.92,18.28-203.86c3.74-52.92-15-72.52-49.6-72.24,11.46-39.51,47.73-52,72.16-34.43,4.6-10,13.35-25.58,24.14-33.16,9.47,8.14,15.59,24,18.49,34.17,27.26-16.18,62.2-2,67.08,37.09-34.39-1.7-56.36,16.9-61.45,69.5l-7.92,101.81c-2.35,30.2-1.14,39.16,10.54,51.44-13.37,10.08-16.12,20.16-18.47,50.36l-8.7,111.88-.09,1.12c.55,43.59,20.44,59.92,55.79,58.18-10.72,40.18-51.35,53.37-78.38,37.26-4.86,10.17-14.25,26.06-26.11,34.23-10.55-7.55-17.3-23.07-20.47-33.1-29.85,17.6-67.38,6.41-71.33-34.21,20.13-.52,35.78-6.53,46.95-19.16,35.25-36.68-8.58-92.11-23.44-119.2q-38.48-69.12-74.85-139.61-11.58,104.07-23.17,208.15c-3,53.73,16,72.51,53.37,70.36-12.15,41-53.2,55-79.63,38.76-5.22,10.45-15.17,26.78-27.31,35.26-10.26-7.6-16.46-23.41-19.26-33.64-30.45,18.32-67.52,7.25-70-34.42,37.12-.15,61.69-20.49,69.26-74.73q6.42-52.51,12.83-105c3.81-31.17,3.12-41.54-8.19-51.92C1803.35,3670.61,1806.39,3661.4,1810.2,3630.22Z" transform="translate(-393.65 -722.82)"/><path class="cls-14" d="M2275,3832.78c.1,19.86,3.46,34.17,8,44.06,27.46,14.06,55.8,11.6,80.21-.66,50-24.53,71-101.37,49.88-125.51,38,7.63,51.46,46,37.63,106.41-8.66,43.93-20.93,49.49-16.77,100-23.13-13-42.36-11.82-65.87-6.12-41.89,9.13-93.68,5.43-113.13-10.86-4.52,10-12.26,23.36-23.86,31.29-10.81-7.56-18.1-22.92-21.6-32.83-29.3,17.06-67.25,5.65-72.56-34.3,37.22.47,60.48-18.68,64.4-70.77l5.76-100.87c1.71-29.93.32-39.89-11.7-49.87,13.33-12.21,15.75-21.07,17.46-51q2.88-50.43,5.77-100.87c2-52.08-17.44-71.2-52-70.65,10.14-38.85,46-51.46,71-34.44,4.26-9.91,12.49-25.3,23-32.87,9.74,7.91,15.57,21.26,18.8,31.25,19.35-16.32,66.49-20.09,104.12-11,21.1,5.68,38.73,6.88,60.21-6.18.79,7.69-5,20.84-13.54,30.68,11.47,26.43,17.37,79.12-6.31,124.09-1.89-64.71-82.59-105.95-124-74.42-5.11,9.89-9.51,24.21-11.35,44.08l-5.31,118.12,25.07,0c34.8-1.08,48.92-20.88,49-52.79,27.42,7.78,35.3,39.65,23,64.94,6.67,3.3,18.07,11,22.69,20.88-5.05,8.79-16.93,16.5-23.83,19.8,11,25.28,1.42,57.15-27.41,65,2-31.91-11.05-51.69-46.08-52.73l-25.36.05Z" transform="translate(-393.65 -722.82)"/><path class="cls-14" d="M2823,3682.66c-12.12,9.94-14.91,34.22-16.69,59.6-4.07,128.26-108.67,214.82-223.05,193.69-4,9.87-12,25.21-23.19,32.88-11.23-7.69-19.36-23-23.4-32.92-28.4,16.45-67,4.51-74.48-35,37.28,1,59.53-17.66,60.63-69.22q.15-49.91.31-99.82c.09-29.61-1.84-39.48-14.39-49.36,12.67-12.06,14.61-20.84,14.7-50.45q.16-49.92.32-99.82c-.84-51.56-21.27-70.2-55.76-69.21,8-38.38,43.16-51.43,69.06-35,3.72-9.88,11.11-25.23,21.22-32.92,10.15,7.67,17.65,25.21,21.44,35.07,141.78-21.36,205.41,72.19,224.41,200.51,0,.37,0,.74,0,1.11,1.31,7.73,2.48,12.14,2.84,19.87C2809.54,3665,2814.84,3674.91,2823,3682.66Zm-225.14,191.89c91,21.14,143.33-71.84,136.9-162.23-1.38-12.11-5.61-22-14.57-29.73,8.49-7.7,12-18.71,12.55-30.82-11.23-94.74-55.58-173.53-138.49-155.74q.18,68,.34,136c.28,29.62,3.24,38.4,16,50.47-12.49,9.87-15.33,19.75-15,49.37Q2596.67,3803.23,2597.84,3874.55Z" transform="translate(-393.65 -722.82)"/><path class="cls-14" d="M3201.3,3791.56c-9.87,9-7.79,19.24-9.94,36.27-5.54,50-31.42,90.1-68.69,112.72-36,23.76-129.51,26.75-173.84-.7-3.37,9.94-10.46,25.35-21.18,32.9-11.69-8-20.75-23.7-25.4-33.75-27.39,16.13-66.74,3.34-76.61-36.5,37.35,1.56,58.45-16.93,56.4-69q-2.88-50.45-5.78-100.88c-1.71-29.93-4.24-39.91-17.4-49.89,11.93-12.18,13.34-21.05,11.63-51q-2.89-50.43-5.78-100.87c-4-52.12-25.55-70.65-60-69.14,5.7-38.72,40-52.57,66.91-36.38,3.12-10.05,9.57-25.72,19.21-33.7,8.63,5.38,18.89,20.76,23.42,32.94,123.87-49.65,202,20.75,219.19,108.58,4.36,14.73,1.14,20.45,13.59,30.54-10.11,12.64-8.82,16-11.13,30.83-4.26,23.9-11.71,45.49-23.58,62.48,33.91,21.44,60.94,56.8,74.06,105.91C3190.82,3776.61,3193.4,3782.33,3201.3,3791.56Zm-259-150c67.56,14.4,104.56-6.88,119.71-39.71,5.59-12.43,8.23-24.89-5.23-37.15,11.45-10.26,10.27-22.69,2.45-36.11-18.1-41.58-64-68.54-126.58-39.68.24,3.35,1.62,36.78,1.92,41.24Q2938.46,3585.85,2942.32,3641.56Zm164.21,148.72c8-8.92,7.49-24.75,1.41-37.23a110.36,110.36,0,0,0-49.67-52.13c-29.06,12.28-64.88,16.55-111.09,10.82q5.06,73,10.12,146c37.85,42.72,134.54,38.37,155.15-25.59C3117.82,3815.28,3122.52,3802.89,3106.53,3790.28Z" transform="translate(-393.65 -722.82)"/><path class="cls-14" d="M3329.71,3841.05c3.64,20.88,9.55,36.07,15.9,46.67,30,15.94,57.91,14.66,80.14,2.54,45.63-24.05,52.83-106.86,27.44-133.22,39.36,8.73,59.67,50.9,56.66,116-.8,47.35-12.07,52.71,1.12,107.56-25.46-15.39-44.48-15-67-10.2-40.29,7.5-92.82.57-115.21-17.5-2.74,10.26-8.13,23.85-18.35,31.47-12.18-8.53-22.21-24.95-27.48-35.44-26.34,16.22-66.44,2.23-78.82-39,37.41,2.21,57.31-16.6,52-70.58L3244,3734.91c-3.59-31-6.75-41.36-20.54-51.7,11.17-12.58,12-21.79,8.42-52.79l-12.12-104.48c-7.26-54-30-72.88-64.34-70.8,3.26-40,36.72-55,64.65-38.71,2.49-10.48,8-26.86,17.11-35.35,11.1,7.66,19.29,21.28,24.29,31.56,16.39-18,62.71-24.71,101.89-17,22.06,4.93,39.87,5.39,59-9.88,2.16,8.27-1.26,22.79-8,33.8,16.18,27.85,31.51,84.92,15.91,133.95-13.48-70.16-101.38-110.49-137.11-75.55-3.34,10.58-5.19,25.75-3.49,46.63l15.72,124,25.06-.07c34.58-1.22,45.15-22.38,39.5-56.37,28.77,7.84,42.35,42,34.6,69.1,7.25,3.52,20,11.77,26.4,22.41-3.48,9.43-14,17.62-20.28,21.11,15.51,27.15,11.64,61.28-15.79,69-3.71-34-20.27-55.2-55.48-56.58L3314,3717Z" transform="translate(-393.65 -722.82)"/><path class="cls-14" d="M3852.53,3857.55c24.36,60.13,52.32,90.89,91.76,84.35,9.39,46.56-22.1,59.41-58.44,36.91-.82,11.26-1.43,28.79-8.88,37-13.9-9.74-28.41-28.16-37.62-39.93-19.7,17.43-67,.67-91-44.68,33.8,10.41,56.67-5.77,30.7-76.48q-18.2-47.88-36.13-95.4c-17,24.53-28.16,50.1-32.07,78.21-13.95-28.7-34.27-55-59-79.81q-1.33,46.36-2.93,92.41c-1.49,67.75,27.5,86,58.25,79-8.3,43.55-50.81,54.24-77.08,34.86-5.28,10.54-13.68,26.87-24.53,34.61-12.55-9.06-17.25-26-22-37-29.38,17.56-66.15,1.47-72.49-41.25,42.54,10.06,60.47-16.41,63.3-72.68q2.68-54.42,5-109.28c1.52-32.56.66-43.5-11.76-54.41,12.36-13.26,14.63-23,15.94-55.75q1.91-55.31,3.41-111.07c.64-57.68-18.79-77.8-54.86-75,6.63-40.33,47.71-61.21,78.86-43.12,1.78-11.25,6.16-28.91,14.74-38.2,11.65,8,22.13,24.89,27.84,35.85,24.86-22.73,74.07-8.36,94.66,35.34-34.63.59-47.55,22.55-26.37,81q21.39,56.61,43.16,113.76c13.11,33.93,18.87,44,36,58-8.47,11.35-5.41,22.64,7.91,56.87Q3830.49,3799.35,3852.53,3857.55Zm-113.2-107q-42-110-82.47-218-1.58,109.23-4.6,216.66c16.55-23,25.61-48.73,29.29-77.12A286.64,286.64,0,0,0,3739.33,3750.58Z" transform="translate(-393.65 -722.82)"/><path class="cls-14" d="M4048.14,3792.1c-24.37-4.58-66.57,17.8-56.4,67.35,14,53.66,55.48,76.88,91.34,77.86,78.79,5.92,77.43-134.43-13.44-199.19-15-10.94-27.09-17.69-39.42-7.27-7.16-20-12.46-26.65-29.23-37.32-36.29-25.28-67.47-50.1-96.78-95.25-43.27-67-44.62-160.87-5.2-210.21,32.9-40.63,84.3-52.48,138.25-16.65,23.36,7.89,50.9.4,63.72-21.79,2.2,9.67.75,40.69-6.7,53.73,16.93,29.35,36.06,125.37,2.32,184.83-2.37-83.63-45.24-147.92-101-148.45-29.18.38-47.87,28.14-46,59.9,3.58,48.94,37.59,83.76,69.28,106.12,12.91,6.49,22.79,7.73,30.52,3.58q5.37,18.1,21.42,32.14c21.5,14.7,38.68,26.94,48.52,36.48,42.9,36.76,77,84.35,90.65,161.55,27.18,152.63-71,200.25-178.23,160.77-31.57-12.71-68.13-26.47-80.44,7-24.65-28.41-25.34-62.51-12.45-82.24-48.69-68.09-43.28-130.36-15.55-162.31C3951.33,3731.12,4001.61,3729.86,4048.14,3792.1Z" transform="translate(-393.65 -722.82)"/><path class="cls-14" d="M4256,3344.79c.6-13.27,3.59-28.3,9.19-36.28,10,6.39,19,20.36,26.43,31.57,22.17-21.37,39.17-24.81,81.68-16.84,23,5.32,41.88,5.17,58.48-15.21,3.58,10.51,2.61,29.26-2.31,43.6,20.07,35,46,107.81,38.82,170.67-25.72-91-101-139.26-129.73-93.8-3,15.07-1.19,34.2,4.82,59q16.1,66.42,32.2,132.83c9.55,39.41,14.28,51,30.76,67.22-9.35,13.11-8.12,26.18,1.43,65.6q16.1,66.41,32.2,132.82c17.56,68.55,45.68,95.19,82.46,96.87,5.18,52.85-30.43,64.85-64,40.4.14,12.82-3.05,32.37-11.79,41.36-13.59-11.26-26.5-32.17-33.62-45.46-23.14,19-66.42-.5-86.21-51.73,37.5,4.28,53.83-18.27,38.78-85.62l-30.93-130.28c-9.18-38.65-14.2-51.59-29.8-64.5,8.85-15.63,8-27.13-1.14-65.78q-15.47-65.14-30.94-130.28c-5.78-24.34-13-42.81-22.93-56.67-48.82-38.5-99.24,16.65-83.34,99.47-35.68-56-43-122.35-39.57-156.62-11.18-11.86-20.48-28-21.75-37.72,25,14.76,43.15,12,62.7,3C4202.18,3328,4222.28,3325.79,4256,3344.79Z" transform="translate(-393.65 -722.82)"/></svg>